<?xml version="1.0"?>
<svg xmlns="http://www.w3.org/2000/svg" id="Layer_5" enable-background="new 0 0 64 64" viewBox="0 0 64 64"><g><path d="m7 39v12c0 1.103.897 2 2 2h20c1.103 0 2-.897 2-2v-12c0-1.103-.897-2-2-2h-20c-1.103 0-2 .897-2 2zm2 0h20v12h-20z" data-original="#000000" class="active-path" data-old_color="#000000" fill="#fba529"/><path d="m58 31h-5v-1c0-1.654-1.346-3-3-3h-14c-.552 0-1-.448-1-1s.448-1 1-1h11.748c3.885 0 7.136-3.044 7.249-6.785.058-1.911-.644-3.719-1.973-5.089-1.33-1.371-3.114-2.126-5.024-2.126-.017 0-.034.002-.051.003-.506-5.6-5.22-10.003-10.949-10.003-3.374 0-6.523 1.536-8.604 4.152-1.341-.756-2.843-1.152-4.396-1.152-4.291 0-7.884 3.021-8.78 7.046-1.612.177-3.097.898-4.244 2.08-1.329 1.37-2.03 3.178-1.973 5.089.113 3.741 3.364 6.785 7.249 6.785h10.748c.552 0 1 .448 1 1s-.448 1-1 1h-6c-1.654 0-3 1.346-3 3v3h-10c-2.757 0-5 2.243-5 5v17h-2v3c0 2.757 2.243 5 5 5h26c2.757 0 5-2.243 5-5v-3h-2v-17c0-2.757-2.243-5-5-5h-10v-3c0-.552.448-1 1-1h6c1.654 0 3-1.346 3-3s-1.346-3-3-3h-10.748c-2.814 0-5.169-2.174-5.249-4.846-.042-1.366.458-2.657 1.408-3.636.715-.737 1.613-1.224 2.595-1.42.017 1.57.438 3.11 1.231 4.458l1.725-1.014c-.63-1.068-.962-2.294-.962-3.542 0-3.859 3.141-7 7-7 1.465 0 2.872.454 4.069 1.312l.845.605.573-.867c1.674-2.535 4.483-4.05 7.513-4.05 4.728 0 8.607 3.666 8.965 8.304-2.87.874-4.965 3.545-4.965 6.696h2c0-2.757 2.243-5 5-5 1.364 0 2.639.539 3.589 1.519.95.979 1.45 2.27 1.408 3.636-.08 2.671-2.435 4.845-5.249 4.845h-11.748c-1.654 0-3 1.346-3 3s1.346 3 3 3h14c.552 0 1 .448 1 1v1h-5c-2.757 0-5 2.243-5 5v22c0 2.757 2.243 5 5 5h12c2.757 0 5-2.243 5-5v-22c0-2.757-2.243-5-5-5zm-23 27c0 1.654-1.346 3-3 3h-26c-1.654 0-3-1.346-3-3v-1h32zm-2-20v17h-28v-17c0-1.654 1.346-3 3-3h22c1.654 0 3 1.346 3 3zm16-5h6v1c0 .552-.448 1-1 1h-4c-.552 0-1-.448-1-1zm-3 0h1v1c0 1.654 1.346 3 3 3h4c1.654 0 3-1.346 3-3v-1h1c1.654 0 3 1.346 3 3v19h-18v-19c0-1.654 1.346-3 3-3zm12 28h-12c-1.654 0-3-1.346-3-3v-1h18v1c0 1.654-1.346 3-3 3z" data-original="#000000" class="active-path" data-old_color="#000000" fill="#666666"/><path d="m59 39h-14v14h14zm-2 12h-10v-10h10z" data-original="#000000" class="active-path" data-old_color="#000000" fill="#fba529"/><path d="m11 41h2v2h-2z" data-original="#000000" class="active-path" data-old_color="#000000" fill="#fba529"/><path d="m15 41h2v2h-2z" data-original="#000000" class="active-path" data-old_color="#000000" fill="#fba529"/><path d="m19 41h2v2h-2z" data-original="#000000" class="active-path" data-old_color="#000000" fill="#fba529"/><path d="m53 43h2v2h-2z" data-original="#000000" class="active-path" data-old_color="#000000" fill="#fba529"/><path d="m53 47h2v2h-2z" data-original="#000000" class="active-path" data-old_color="#000000" fill="#fba529"/><path d="m41.167 9.236 1.666-1.107c-1.302-1.959-3.482-3.129-5.833-3.129-2.491 0-4.814 1.341-6.062 3.499l1.73 1.002c.893-1.543 2.553-2.501 4.332-2.501 1.68 0 3.237.836 4.167 2.236z" data-original="#000000" class="active-path" data-old_color="#000000" fill="#666666"/><path d="m18 19h2v2h-2z" data-original="#000000" class="active-path" data-old_color="#000000" fill="#fba529"/><path d="m22 19h2v2h-2z" data-original="#000000" class="active-path" data-old_color="#000000" fill="#fba529"/><path d="m26 19h2v2h-2z" data-original="#000000" class="active-path" data-old_color="#000000" fill="#fba529"/></g> </svg>
