<?xml version="1.0" encoding="UTF-8"?>
<svg xmlns="http://www.w3.org/2000/svg" width="500" height="auto" viewBox="0 0 330 220" fill="none">
  <g clip-path="url(#clip0_1_7130)">
    <path d="M329.516 219.027H287.421V217.361C296.402 217.879 319.593 218.752 322.954 210.371C326.821 200.723 316.047 173.215 314.549 169.481L317.506 167.785C317.753 167.645 317.827 167.32 317.665 167.086C310.221 156.25 295.602 140.25 282.46 136.62C278.557 135.539 271.515 134.695 261.537 134.109C261.771 118.656 261.695 123.687 261.71 122.657C261.919 121.91 262.046 121.09 262.098 120.164C263.852 119.866 266.515 118.579 266.591 115.36C273.389 96.733 265.057 97.3109 265.057 97.3109C258.514 84.3521 245.51 91.2612 242.986 92.4143C241.393 93.1424 237.525 92.9511 234.891 92.7111C233.848 92.6161 233.192 93.8336 233.849 94.6537C235.757 97.036 237.054 97.7188 237.054 97.7188C236.05 97.7097 235.108 97.5333 234.27 97.2825C233.129 96.9409 232.225 98.2868 232.998 99.197C233.816 100.16 234.653 100.975 235.325 101.583C234.316 103.809 232.415 109.482 236.547 114.149C236.489 121.571 238.6 128.593 245.822 129.988V131.619C245.822 131.889 245.955 132.113 246.151 132.261V133.519L244.823 133.5C225.589 133.852 208.488 144.612 201.915 159.471C201.828 159.667 201.88 159.899 202.044 160.039L202.509 160.437L198.85 167.222L192.536 148.569C192.633 148.541 193.28 148.698 193.28 148.082V75.8036C193.414 75.8204 192.794 75.8133 199.59 75.8133C201.612 75.8133 203.354 74.3736 203.731 72.389L204.196 69.957C206.441 69.3345 208.599 68.4298 210.631 67.2527L212.683 68.6146C214.386 69.743 216.612 69.5193 217.967 68.0796L222.235 63.7895C223.696 62.3887 223.928 60.1416 222.786 58.4489L221.422 56.3671C222.573 54.3242 223.464 52.1258 224.064 49.8396L226.444 49.3825C228.418 49.0031 229.851 47.2618 229.851 45.2481V39.1487C229.851 37.1156 228.418 35.3645 226.444 34.9851L224.015 34.5085C223.396 32.271 222.486 30.092 221.315 28.02L222.66 25.9869C223.793 24.3039 223.58 22.0567 222.157 20.6462L217.889 16.3757C216.496 14.9262 214.251 14.6927 212.557 15.8212L210.486 17.2025C208.396 16.0157 206.219 15.1208 204.002 14.5176L203.538 12.1829C203.18 10.179 201.457 8.72948 199.444 8.72948H193.377C191.335 8.72948 189.593 10.1692 189.235 12.1537L188.761 14.5663C186.477 15.2181 184.29 16.1325 182.267 17.2901L180.264 15.9476C178.59 14.8191 176.364 15.0332 174.97 16.4535C170.598 20.8774 170.02 21.1806 169.619 22.5529H43.3769C43.106 22.5529 42.893 22.767 42.893 23.0393V134.915C32.9779 127.981 20.809 124.403 7.58985 124.657C7.34795 124.657 7.14465 124.842 7.11564 125.085C5.0711 142.521 9.97483 160.286 22.6285 173.122C22.4947 184.302 28.7887 194.267 38.2962 199.105C39.0298 199.474 39.8865 198.78 39.6317 197.948C38.3349 193.609 38.122 188.979 38.993 184.543C44.4307 187.034 50.4094 188.463 50.8769 188.463C50.993 188.463 51.1091 188.414 51.1962 188.337L52.793 186.877C56.4603 191.654 62.3058 193.525 68.4414 192.996C68.6639 192.977 68.8382 192.821 68.8769 192.607C70.0866 186.128 68.4317 180.233 64.3382 176.361L65.9252 174.912C66.0414 174.805 66.0995 174.649 66.0801 174.494C65.5962 170.291 64.6866 166.225 63.3704 162.344C67.8414 161.886 72.3994 162.548 76.5704 164.27C77.0001 164.436 77.3819 164.31 77.6252 164.065C77.8962 163.793 77.9833 163.404 77.8478 163.044C75.4619 156.892 71.046 151.8 65.4642 148.569H168.56L175.379 170.938H157.373C157.226 170.938 157.086 171.006 156.995 171.122C156.902 171.238 156.868 171.39 156.902 171.534L167.786 219.027H138.84C140.791 211.937 134.902 205.282 127.78 206.154C126.189 200.282 120.019 197.32 114.647 199.211C112.875 194.628 108.476 191.584 103.546 191.584C98.6212 191.584 94.2252 194.628 92.4537 199.211C87.1848 197.356 80.9419 200.218 79.3221 206.154C72.1785 205.27 66.3156 211.962 68.2605 219.027H0.483872C0.216418 219.027 0 219.245 0 219.514C0 219.782 0.216418 220 0.483872 220C20.7311 220 309.954 220 329.516 220C329.784 220 330 219.782 330 219.514C330 219.244 329.784 219.027 329.516 219.027ZM79.6024 207.178C79.8561 207.223 80.099 207.059 80.1562 206.807C81.8258 199.467 91.2488 196.944 95.8044 203.186C95.9627 203.402 96.266 203.449 96.4811 203.29C96.6966 203.131 96.7429 202.827 96.5846 202.61C95.7075 201.409 94.5696 200.448 93.2852 199.771C94.8595 195.448 98.9486 192.556 103.546 192.556C108.229 192.556 112.391 195.547 113.902 199.997C113.991 200.258 114.281 200.397 114.543 200.29C119.474 198.267 125.3 200.927 126.816 206.333C124.515 206.853 122.465 208.163 120.998 210.106C120.836 210.321 120.878 210.626 121.091 210.788C121.303 210.95 121.606 210.91 121.769 210.695C127.877 202.602 140.772 209.096 137.865 218.943H69.2355C67.2771 212.31 73.0037 206.025 79.6024 207.178ZM241.386 212.053C241.603 212.763 242.338 213.045 243.068 213.045C244.413 213.044 245.789 212.038 247.235 210.979C248.901 209.761 250.623 208.501 252.504 208.469C253.847 208.459 255.36 209.191 256.94 209.98C259.589 211.303 262.569 212.789 266.198 211.525L266.159 213.067H239.408L238.884 210.856C239.781 210.741 241.021 210.145 242.158 209.491C241.584 210.382 241.166 211.342 241.386 212.053ZM266.225 210.48C262.826 211.832 260.054 210.449 257.37 209.109C255.71 208.28 254.14 207.496 252.567 207.496C252.541 207.496 252.515 207.497 252.488 207.497C250.301 207.534 248.37 208.946 246.667 210.193C245.638 210.944 242.684 212.988 242.31 211.766C242.079 211.015 243.642 208.96 244.773 207.806C245.182 207.388 244.631 206.73 244.151 207.066C241.853 208.676 239.409 209.921 238.665 209.933L238.531 209.366C239.377 205.366 245.258 195.047 252.286 193.734C259.877 192.319 265.613 198.36 266.506 199.365C266.201 211.426 266.235 210.067 266.225 210.48ZM286.454 219.027H276.083V216.423C279.121 216.745 282.676 217.068 286.454 217.303V219.027ZM322.056 210.009C318.594 218.642 290.962 216.981 276.083 215.422V213.285C276.083 213.163 275.987 213.067 275.866 213.067H267.131C267.115 213.716 267.368 203.652 267.543 196.66C276.686 196.518 283.592 196.411 293.277 196.26C293.57 196.256 293.795 195.992 293.747 195.696L291.629 182.628C320.95 165.81 311.255 171.371 313.7 169.969C315.313 174.04 325.692 200.936 322.056 210.009ZM290.731 183.141L292.701 195.296L287.421 195.378V185.04L290.731 183.141ZM238.736 103.923C247.843 108.27 256.939 100.267 256.939 100.267C256.688 110.265 259.11 114.908 260.229 114.293C261.108 113.814 263.655 112.724 264.882 113.422C265.348 113.687 265.591 114.205 265.627 115.007C265.785 118.823 261.76 119.234 261.589 119.25C261.345 119.272 261.155 119.474 261.148 119.72C261.087 121.751 260.742 122.315 260.742 122.59C260.701 123.79 260.891 118.242 260.342 134.327C260.341 134.328 260.339 134.329 260.339 134.33C259.684 135.625 262.71 129.642 253.938 146.986L247.118 133.535V132.413C254.404 132.177 255.415 126.822 255.431 126.774C255.48 126.431 255.333 126.105 255.041 125.925C254.749 125.762 254.392 125.779 254.116 125.991C250.886 128.569 246.634 128.813 246.601 128.83C246.402 128.837 246.227 128.922 246.091 129.047C236.25 127.216 236.575 113.777 238.736 103.923ZM218.747 142.25C217.175 143.939 215.841 146.059 215.684 148.506C215.667 148.774 215.869 149.005 216.135 149.023C216.146 149.023 216.156 149.024 216.167 149.024C216.42 149.024 216.633 148.826 216.65 148.569C216.962 143.694 222.732 140.031 224.342 139.1C229.903 136.468 236.677 134.622 244.825 134.473L246.516 134.498L253.507 148.284C253.685 148.637 254.19 148.637 254.369 148.283C255.056 146.925 251.891 153.183 261.059 135.054C271.197 135.637 278.31 136.48 282.203 137.558C289.007 139.437 292.501 143.677 293.372 148.622C293.414 148.858 293.618 149.024 293.848 149.024C294.152 149.024 294.377 148.749 294.325 148.453C293.803 145.489 292.481 143.258 290.997 141.6C303.567 149.456 314.608 164.465 316.563 167.206C316.66 167.15 315.601 167.755 287.081 184.115C286.026 182.528 281.787 175.96 278.179 167.518C278.073 167.27 277.788 167.159 277.544 167.263C277.298 167.369 277.185 167.655 277.29 167.901C281.179 177.001 285.8 183.952 286.454 184.918V195.393C259.881 195.8 269.046 195.66 267.063 195.69C266.804 195.694 266.593 195.903 266.587 196.164L266.541 197.982C264.551 195.976 259.169 191.456 252.108 192.778C245.726 193.97 240.21 201.881 238.094 207.522L229.451 171.064C229.425 170.964 229.338 170.894 229.238 170.894C224.367 170.922 228.459 170.867 222.656 170.938V156.589C222.656 156.321 222.44 156.103 222.173 156.103C221.905 156.103 221.689 156.321 221.689 156.589V170.938H216.272C200.347 157.305 221.501 175.413 202.955 159.541C203.844 157.746 208.589 148.928 218.747 142.25ZM203.262 161.081C204.44 162.09 198.996 157.43 214.776 170.938H200.108L199.275 168.476L203.262 161.081ZM89.5768 36.1427C89.5768 38.4773 87.6994 40.3841 85.3865 40.3841C83.0639 40.3841 81.1671 38.4773 81.1671 36.1427C81.1671 33.8177 83.0639 31.9305 85.3865 31.9305C87.6994 31.9305 89.5768 33.8177 89.5768 36.1427ZM74.8672 36.1427C74.8672 38.4773 72.9898 40.3841 70.6769 40.3841C68.3543 40.3841 66.4576 38.4773 66.4576 36.1427C66.4576 33.8177 68.3543 31.9305 70.6769 31.9305C72.9898 31.9305 74.8672 33.8177 74.8672 36.1427ZM59.6349 36.1427C59.6349 38.4773 57.7576 40.3841 55.4447 40.3841C53.1221 40.3841 51.2254 38.4773 51.2254 36.1427C51.2254 33.8177 53.1221 31.9305 55.4447 31.9305C57.7575 31.9305 59.6349 33.8177 59.6349 36.1427ZM175.657 17.144C176.722 16.0447 178.435 15.8891 179.722 16.7549L181.977 18.2627C182.131 18.36 182.335 18.3697 182.49 18.2822C184.599 17.0468 186.893 16.0837 189.302 15.4222C189.486 15.3736 189.622 15.2277 189.651 15.0525L190.183 12.3287C190.464 10.8111 191.799 9.70212 193.377 9.70212H199.444C200.993 9.70212 202.309 10.8209 202.59 12.3579L203.122 15.0136C203.151 15.1887 203.296 15.3346 203.47 15.3833C205.793 15.9864 208.077 16.9301 210.264 18.1947C210.419 18.292 210.622 18.2823 210.767 18.1753L213.089 16.6286C214.396 15.7628 216.118 15.9379 217.202 17.0566L221.48 21.3368C222.573 22.4166 222.728 24.1482 221.857 25.442L220.338 27.7378C220.241 27.8836 220.231 28.0879 220.328 28.2533C221.586 30.413 222.544 32.699 223.164 35.0532C223.212 35.2379 223.357 35.3742 223.541 35.4033L226.26 35.9383C227.78 36.2302 228.883 37.5824 228.883 39.1486V45.2481C228.883 46.7947 227.78 48.1372 226.26 48.4291L223.58 48.9447C223.396 48.9739 223.251 49.1198 223.202 49.2948C222.602 51.7074 221.664 54.0129 220.435 56.1434C220.338 56.299 220.347 56.5033 220.444 56.6589L221.983 58.9937C222.864 60.2972 222.689 62.0191 221.557 63.0989L217.27 67.4083C216.234 68.5076 214.531 68.673 213.215 67.7974L210.912 66.2701C210.767 66.1728 210.563 66.1728 210.409 66.2604C208.28 67.5153 206.015 68.4687 203.654 69.0912C203.48 69.1398 203.344 69.2857 203.305 69.4706L202.783 72.2041C202.483 73.7314 201.147 74.8404 199.589 74.8404H193.522C192.274 74.8404 191.105 74.1171 190.576 72.9305C190.273 72.2448 190.36 72.1276 189.825 69.529C189.786 69.3442 189.651 69.1982 189.467 69.1496C187.038 68.5173 184.754 67.5737 182.683 66.348C182.527 66.25 182.322 66.262 182.17 66.3577L179.847 67.9239C178.551 68.7897 176.838 68.6146 175.764 67.5056L171.467 63.1766C170.393 62.0968 170.218 60.3749 171.06 59.1006L172.599 56.834C172.696 56.6784 172.706 56.474 172.618 56.3087C171.312 54.0599 170.327 51.6029 169.773 49.4894C169.73 49.3166 169.547 49.1581 169.406 49.1294C166.59 48.8647 164.083 48.1718 164.083 45.4134V39.2945C164.083 37.7705 165.198 36.4257 166.686 36.1037L169.357 35.5785C169.541 35.5396 169.686 35.4033 169.734 35.2185C170.344 32.8741 171.283 30.5782 172.531 28.3895C172.628 28.2339 172.618 28.0295 172.512 27.8739L170.954 25.5781C170.33 24.6227 170.266 23.4446 170.69 22.4655C171.062 21.6111 171.2 21.6535 175.657 17.144ZM136.377 36.6388H164.044C163.947 36.7614 163.866 36.8969 163.782 37.03C163.363 37.6885 163.115 38.4612 163.115 39.2945V45.4134C163.115 46.7288 163.748 48.009 164.79 48.7986H129.612L136.377 36.6388ZM67.9962 192.062C61.9285 192.5 56.693 190.389 53.5091 186.225L55.1543 184.727C57.3898 187.471 60.8252 188.978 64.6478 188.881C64.9224 188.881 65.1524 188.658 65.1704 188.404C65.6349 184.591 64.4736 181.011 61.9672 178.521L63.622 177.013C67.435 180.593 69.022 186.031 67.9962 192.062ZM63.7575 167.178L43.7156 185.437C26.6312 179.371 13.2124 165.258 9.00271 145.913L28.0285 128.568C46.1131 134.511 59.4937 149.426 63.7575 167.168V167.178ZM38.7317 198.23C29.8912 193.743 23.8394 184.587 23.5962 174.095C27.605 177.989 32.5019 181.436 38.0931 184.124C37.1253 188.794 37.3382 193.658 38.7317 198.23ZM54.6594 146.061C66.3361 147.713 73.6239 154.834 76.938 163.374C72.4117 161.496 67.467 160.882 63.0413 161.39C62.9663 161.239 60.4329 153.542 54.6594 146.061ZM63.6357 147.596C60.1001 145.881 57.0494 145.233 53.646 144.833C51.5376 142.163 47.7947 138.495 43.8608 135.626V49.9466C45.0985 49.9474 29.2444 49.9375 168.922 50.0244C169.532 52.2424 170.441 54.4312 171.622 56.5324L170.257 58.5559C169.164 60.2291 169.377 62.4665 170.78 63.8674L175.067 68.1866C176.461 69.6262 178.696 69.8598 180.39 68.741L182.451 67.3402C184.454 68.4881 186.622 69.3831 188.935 70.0154C189.397 72.3059 189.382 74.6434 192.312 75.6284V147.596H192.207L189.345 139.141C189.26 138.893 189 138.755 188.746 138.832L186.892 139.398L187.222 138.6C187.222 138.599 187.222 138.599 187.222 138.599C189.716 132.53 188 125.517 183.075 121.291L182.174 120.519C181.708 119.028 177.554 106.082 173.593 103.981C172.611 103.459 171.453 103.554 170.954 104.573C170.143 106.232 171.002 110.617 173.507 117.609C173.044 118.054 172.78 118.634 172.589 119.254C172.581 119.253 172.574 119.253 172.566 119.251C170.274 118.78 168.901 120.292 168.751 122.62C168.746 122.619 168.742 122.619 168.738 122.618C166.059 121.924 164.668 123.799 164.693 126.635C159.871 126.284 159.617 135.218 169.327 144.758L168.027 145.155C167.771 145.233 167.626 145.506 167.704 145.763L168.263 147.596L63.6357 147.596ZM170.391 144.434C161.164 135.577 160.837 127.125 164.795 127.641C164.943 128.842 165.308 130.123 165.909 131.465C166.019 131.711 166.306 131.818 166.549 131.709C166.793 131.599 166.902 131.311 166.792 131.066C165.13 127.356 164.965 122.39 168.78 123.658C168.847 124.909 169.163 126.248 169.743 127.659C169.845 127.908 170.129 128.025 170.375 127.922C170.622 127.82 170.739 127.536 170.637 127.287C169.34 124.131 169.068 119.503 172.386 120.217C172.22 121.746 172.516 123.273 173.006 124.717C173.095 124.977 173.377 125.106 173.62 125.02C173.873 124.934 174.008 124.657 173.923 124.403C173.274 122.491 172.869 119.327 174.301 118.316C174.483 118.188 174.609 117.812 174.532 117.599C172.137 110.97 171.149 106.378 171.822 105.002C172.07 104.497 172.679 104.596 173.141 104.841C176.054 106.386 179.535 115.589 180.875 119.629L177.716 117.218C177.507 117.059 177.212 117.096 177.048 117.299C176.869 117.697 172.789 121.095 175.949 124.696L179.221 128.423C177.507 129.259 173.11 132.049 175.082 137.989C175.167 138.242 175.439 138.381 175.694 138.296C175.948 138.211 176.085 137.935 176.001 137.681C173.893 131.335 179.924 129.152 180.182 129.062C180.508 128.948 180.613 128.539 180.387 128.281L176.674 124.053C174.233 121.271 177.396 118.518 177.503 118.278L181.699 121.481C186.903 125.451 188.784 132.248 186.328 138.227L185.693 139.764L170.391 144.434ZM168.772 145.945L188.579 139.9C188.753 140.413 187.025 135.306 199.085 170.938H176.392L168.772 145.945ZM224.124 171.916L234.904 218.94C227.788 218.941 173.07 218.943 168.76 218.943L157.981 171.911C158.129 171.911 224.279 171.916 224.124 171.916Z" fill="#1E2F37"></path>
    <path d="M159.758 79.9742C160.029 79.9742 160.242 79.7602 160.242 79.4878V63.5437C160.242 63.2713 160.029 63.0573 159.758 63.0573H90.8258H73.9096C73.6387 63.0573 73.4258 63.2713 73.4258 63.5437V79.4878C73.4258 79.7602 73.6387 79.9742 73.9096 79.9742C84.7269 79.9742 149.089 79.9742 159.758 79.9742ZM86.2483 74.2347C86.4418 74.4293 86.4418 74.7308 86.2483 74.9254C86.057 75.1176 85.7326 75.0976 85.5612 74.9254L83.5773 72.9215C83.4721 73.0027 83.3608 73.0763 83.2445 73.142C82.1233 73.7754 80.5416 73.6736 79.4837 72.6102C78.2547 71.3747 78.2547 69.361 79.4837 68.1159C80.6741 66.9193 82.7644 66.9193 83.9547 68.1159C85.0846 69.2697 85.1554 71.0251 84.2644 72.2405L86.2483 74.2347ZM159.274 79.0014H91.3096V64.0301H159.274V79.0014Z" fill="#1E2F37"></path>
    <path d="M166.396 106.729C166.396 98.4019 159.661 91.6312 151.377 91.6312C143.103 91.6312 136.367 98.4019 136.367 106.729C136.367 115.046 143.103 121.817 151.377 121.817C159.661 121.817 166.396 115.046 166.396 106.729ZM151.377 120.844C143.635 120.844 137.335 114.511 137.335 106.729C137.335 98.9369 143.635 92.604 151.377 92.604C159.128 92.604 165.428 98.9369 165.428 106.729C165.428 114.511 159.128 120.844 151.377 120.844Z" fill="#1E2F37"></path>
    <path d="M80.161 68.8091C79.3093 69.6652 79.3093 71.066 80.1706 71.9221C81.0223 72.7879 82.4061 72.7879 83.2674 71.9221C84.119 71.066 84.119 69.6652 83.2674 68.8091C82.3995 67.9367 80.9974 67.9684 80.161 68.8091Z" fill="#1E2F37"></path>
    <path d="M69.5901 85.696H56.5195V98.8349H69.5901V85.696Z" fill="#FF6B26"></path>
    <path d="M69.5901 104.977H56.5195V118.116H69.5901V104.977Z" fill="#FF6B26"></path>
    <path d="M69.5901 124.258H56.5195V137.396H69.5901V124.258Z" fill="#FF6B26"></path>
    <path d="M122.545 89.1793H78.4975C78.2301 89.1793 78.0137 89.3968 78.0137 89.6657C78.0137 89.9345 78.2301 90.1521 78.4975 90.1521H122.545C122.813 90.1521 123.029 89.9345 123.029 89.6657C123.029 89.3968 122.813 89.1793 122.545 89.1793Z" fill="#1E2F37"></path>
    <path d="M78.4975 95.3514H105.935C106.203 95.3514 106.419 95.1338 106.419 94.865C106.419 94.5961 106.203 94.3786 105.935 94.3786H78.4975C78.2301 94.3786 78.0137 94.5961 78.0137 94.865C78.0137 95.1338 78.2301 95.3514 78.4975 95.3514Z" fill="#1E2F37"></path>
    <path d="M151.377 96.2024C145.6 96.2024 140.906 100.92 140.906 106.728C140.906 112.536 145.6 117.254 151.377 117.254C157.155 117.254 161.848 112.536 161.848 106.728C161.848 100.92 157.155 96.2024 151.377 96.2024ZM154.3 105.726L150.274 108.528C150.024 108.695 149.718 108.607 149.587 108.382L148.319 106.329C147.984 105.791 148.79 105.271 149.142 105.814C149.216 105.934 150.201 107.541 150.139 107.438C150.237 107.37 153.988 104.762 153.748 104.928C154.275 104.56 154.838 105.373 154.3 105.726Z" fill="#FF6B26"></path>
    <path d="M122.545 108.458H78.4975C78.2301 108.458 78.0137 108.676 78.0137 108.944C78.0137 109.213 78.2301 109.431 78.4975 109.431H122.545C122.813 109.431 123.029 109.213 123.029 108.944C123.029 108.676 122.813 108.458 122.545 108.458Z" fill="#1E2F37"></path>
    <path d="M78.4975 114.632H105.935C106.203 114.632 106.419 114.415 106.419 114.146C106.419 113.877 106.203 113.659 105.935 113.659H78.4975C78.2301 113.659 78.0137 113.877 78.0137 114.146C78.0137 114.415 78.2301 114.632 78.4975 114.632Z" fill="#1E2F37"></path>
    <path d="M122.545 127.739H78.4975C78.2301 127.739 78.0137 127.956 78.0137 128.225C78.0137 128.494 78.2301 128.712 78.4975 128.712H122.545C122.813 128.712 123.029 128.494 123.029 128.225C123.029 127.956 122.813 127.739 122.545 127.739Z" fill="#1E2F37"></path>
    <path d="M105.935 132.94H78.4975C78.2301 132.94 78.0137 133.158 78.0137 133.427C78.0137 133.695 78.2301 133.913 78.4975 133.913H105.935C106.203 133.913 106.419 133.695 106.419 133.427C106.419 133.158 106.203 132.94 105.935 132.94Z" fill="#1E2F37"></path>
    <path d="M196.483 64.2143C208.521 64.2143 218.315 54.3696 218.315 42.268C218.315 30.1664 208.521 20.3218 196.483 20.3218C184.444 20.3218 174.65 30.1665 174.65 42.268C174.65 54.3696 184.444 64.2143 196.483 64.2143ZM196.483 21.2946C207.989 21.2946 217.347 30.7015 217.347 42.268C217.347 53.8346 207.989 63.2415 196.483 63.2415C184.976 63.2415 175.618 53.8346 175.618 42.268C175.618 30.7015 184.976 21.2946 196.483 21.2946Z" fill="#1E2F37"></path>
    <path d="M196.483 59.5928C205.987 59.5928 213.719 51.8202 213.719 42.2674C213.719 32.7145 205.987 24.9419 196.483 24.9419C186.98 24.9419 179.248 32.7145 179.248 42.2674C179.248 51.8202 186.98 59.5928 196.483 59.5928ZM196.483 58.62C187.512 58.62 180.216 51.2851 180.216 42.2674H184.174C185.258 42.2674 186.206 41.4891 186.4 40.4191C188.401 29.4103 204.498 29.1368 206.529 40.4191C206.722 41.4891 207.671 42.2674 208.754 42.2674H212.751C212.751 51.2851 205.454 58.62 196.483 58.62Z" fill="#FF6B26"></path>
    <path d="M198.108 43.8166C198.563 43.3497 200.828 40.1589 202.918 37.1627C203.644 36.1316 202.366 34.8766 201.35 35.6159C198.437 37.7658 195.321 40.0908 194.857 40.5578C193.957 41.4527 193.957 42.9216 194.857 43.8166C195.757 44.7213 197.208 44.7213 198.108 43.8166Z" fill="#1E2F37"></path>
    <path d="M184.406 45.8097C183.67 45.8097 183.07 46.4031 183.07 47.1327C183.07 47.872 183.67 48.4849 184.406 48.4849C185.132 48.4849 185.722 47.872 185.722 47.1327C185.722 46.4031 185.132 45.8097 184.406 45.8097Z" fill="#1E2F37"></path>
    <path d="M199.444 46.841H193.511C192.786 46.841 192.195 47.4344 192.195 48.1639V49.9053C192.195 50.6446 192.786 51.2574 193.511 51.2574H199.444C200.179 51.2574 200.76 50.6446 200.76 49.9053V48.1639C200.76 47.4344 200.179 46.841 199.444 46.841Z" fill="#1E2F37"></path>
    <path d="M188.771 51.5863C188.045 51.5863 187.455 52.1797 187.455 52.9093C187.455 53.6486 188.045 54.2322 188.771 54.2322C189.507 54.2322 190.107 53.6485 190.107 52.9093C190.107 52.1797 189.507 51.5863 188.771 51.5863Z" fill="#1E2F37"></path>
    <path d="M206.635 47.1327C206.635 47.872 207.215 48.4849 207.951 48.4849C208.686 48.4849 209.286 47.872 209.286 47.1327C209.286 46.403 208.686 45.8097 207.951 45.8097C207.215 45.8097 206.635 46.4031 206.635 47.1327Z" fill="#1E2F37"></path>
    <path d="M196.357 54.1459C195.621 54.1459 195.021 54.7587 195.021 55.4981C195.021 56.2277 195.621 56.821 196.357 56.821C197.063 56.821 197.673 56.2276 197.673 55.4981C197.673 54.7588 197.063 54.1459 196.357 54.1459Z" fill="#1E2F37"></path>
    <path d="M203.769 51.5863C203.043 51.5863 202.453 52.1797 202.453 52.9093C202.453 53.6486 203.043 54.2322 203.769 54.2322C204.505 54.2322 205.085 53.6485 205.085 52.9093C205.085 52.1797 204.505 51.5863 203.769 51.5863Z" fill="#1E2F37"></path>
    <path d="M179.746 213.711H213.885C214.152 213.711 214.369 213.494 214.369 213.225C214.369 212.956 214.152 212.738 213.885 212.738H179.746C179.478 212.738 179.262 212.956 179.262 213.225C179.262 213.494 179.478 213.711 179.746 213.711Z" fill="#1E2F37"></path>
    <path d="M294.101 174.956L306.283 167.473C306.511 167.333 306.583 167.034 306.444 166.804C306.303 166.574 306.004 166.502 305.778 166.643L293.597 174.125C293.369 174.265 293.297 174.565 293.436 174.794C293.577 175.025 293.877 175.094 294.101 174.956Z" fill="#1E2F37"></path>
    <path d="M242.963 120.672C243.239 121.5 244.247 121.83 245.035 121.596C245.736 121.388 246.246 120.859 246.656 120.435C246.842 120.242 246.838 119.934 246.646 119.747C246.454 119.56 246.148 119.565 245.962 119.757C245.613 120.118 245.218 120.527 244.76 120.663C244.432 120.762 243.976 120.651 243.881 120.363C243.626 119.602 245.744 117.908 246.09 113.102C246.109 112.834 245.908 112.601 245.642 112.582C245.382 112.566 245.144 112.763 245.124 113.032C244.766 118.046 242.455 119.147 242.963 120.672Z" fill="#1E2F37"></path>
    <path d="M249.717 111.369C249.768 111.316 251.005 110.074 253.551 111.464C253.782 111.59 254.077 111.507 254.206 111.268C254.334 111.032 254.247 110.737 254.012 110.609C250.778 108.843 249.079 110.629 249.008 110.706C248.828 110.903 248.841 111.205 249.034 111.388C249.226 111.569 249.532 111.562 249.717 111.369Z" fill="#1E2F37"></path>
    <path d="M250.88 113.064C250.312 113.064 249.857 113.521 249.857 114.093C249.857 114.647 250.312 115.104 250.88 115.104C251.432 115.104 251.886 114.647 251.886 114.093C251.886 113.521 251.432 113.064 250.88 113.064Z" fill="#1E2F37"></path>
    <path d="M242.671 111.369C242.851 111.562 243.155 111.576 243.351 111.394C243.548 111.212 243.56 110.904 243.38 110.706C243.31 110.63 241.615 108.842 238.376 110.608C238.141 110.737 238.054 111.032 238.182 111.268C238.311 111.507 238.607 111.59 238.838 111.463C241.374 110.081 242.61 111.306 242.671 111.369Z" fill="#1E2F37"></path>
    <path d="M240.809 113.064C240.257 113.064 239.803 113.521 239.803 114.093C239.803 114.647 240.257 115.104 240.809 115.104C241.377 115.104 241.832 114.647 241.832 114.093C241.832 113.521 241.377 113.064 240.809 113.064Z" fill="#1E2F37"></path>
    <path d="M247.281 124.936C247.515 124.805 247.599 124.509 247.469 124.275C247.338 124.039 247.042 123.956 246.811 124.086C244.565 125.34 242.514 124.355 242.429 124.313C242.191 124.195 241.9 124.291 241.781 124.533C241.663 124.772 241.759 125.063 241.997 125.183C242.062 125.216 243.034 125.692 244.408 125.692C245.253 125.692 246.25 125.512 247.281 124.936Z" fill="#1E2F37"></path>
    <path d="M21.6802 140.744C15.3189 146.535 14.8386 156.415 20.606 162.817C26.3824 169.209 36.2051 169.685 42.5641 163.897C48.9972 158.02 49.3358 148.145 43.6383 141.824C37.8094 135.354 27.9856 135.004 21.6802 140.744ZM41.9156 163.177C35.964 168.605 26.7221 168.148 21.3221 162.165C15.8679 156.114 16.408 146.856 22.3286 141.464C28.1466 136.161 37.3397 136.327 42.9221 142.476C48.3254 148.47 47.8963 157.71 41.9156 163.177Z" fill="#1E2F37"></path>
    <path d="M24.5252 143.905C19.909 148.108 19.5607 155.316 23.751 159.956C28.0219 164.702 35.1902 164.867 39.7187 160.735C44.3397 156.528 44.6883 149.317 40.4929 144.684C36.3123 140.043 29.1414 139.693 24.5252 143.905ZM39.0703 160.015C34.788 163.913 28.2576 163.514 24.4671 159.305L26.2284 157.69C26.7509 157.213 26.867 156.435 26.4993 155.832C24.8408 153.14 25.3086 149.579 27.6897 147.407C30.0896 145.219 33.6509 145.141 36.1283 147.047C36.6896 147.485 37.4735 147.436 37.996 146.96L39.7767 145.335C43.609 149.577 43.2897 156.163 39.0703 160.015Z" fill="#FF6B26"></path>
    <path d="M27.8738 159.288C27.5253 159.609 27.4867 160.153 27.806 160.504C28.1253 160.854 28.677 160.883 29.0254 160.562C29.3737 160.241 29.3931 159.696 29.0737 159.346C28.7641 158.996 28.2221 158.967 27.8738 159.288Z" fill="#1E2F37"></path>
    <path d="M32.625 157.021L33.4959 157.984C33.554 158.042 33.6411 158.052 33.6992 157.994L37.5798 154.463C37.6379 154.404 37.6476 154.307 37.5895 154.239L36.7282 153.285C36.6701 153.227 36.5831 153.217 36.525 153.276L32.6346 156.817C32.5766 156.865 32.5766 156.963 32.625 157.021Z" fill="#1E2F37"></path>
    <path d="M32.4621 160.143C32.1138 160.464 32.0847 160.999 32.404 161.349C32.7137 161.7 33.2557 161.729 33.604 161.408C33.9524 161.087 33.991 160.542 33.6718 160.192C33.3524 159.842 32.8105 159.822 32.4621 160.143Z" fill="#1E2F37"></path>
    <path d="M39.1379 149.015C38.7895 149.336 38.7605 149.871 39.0799 150.221C39.3992 150.571 39.9412 150.61 40.2895 150.289C40.6379 149.968 40.6669 149.414 40.3476 149.063C40.0378 148.713 39.4863 148.694 39.1379 149.015Z" fill="#1E2F37"></path>
    <path d="M37.1926 158.062C36.8442 158.383 36.8152 158.938 37.1345 159.288C37.4539 159.638 37.9958 159.658 38.3443 159.337C38.683 159.025 38.7217 158.481 38.4023 158.13C38.0829 157.78 37.5313 157.751 37.1926 158.062Z" fill="#1E2F37"></path>
    <path d="M39.6301 153.595C39.2818 153.916 39.2527 154.451 39.572 154.811C39.8913 155.161 40.4236 155.181 40.772 154.87C41.1301 154.549 41.1494 154.013 40.83 153.654C40.5204 153.303 39.9784 153.284 39.6301 153.595Z" fill="#1E2F37"></path>
    <path d="M32.8374 151.525C32.6922 150.279 32.4697 148.519 32.3536 147.643C32.3439 147.536 32.189 147.526 32.1697 147.633C31.9858 148.509 31.618 150.26 31.3761 151.495C30.6993 151.836 30.438 152.923 31.0665 153.626C31.5794 154.19 32.46 154.239 33.0213 153.713C33.7845 153.024 33.4831 151.82 32.8374 151.525Z" fill="#1E2F37"></path>
    <path d="M75.2953 188.794C75.4933 188.97 75.8012 188.954 75.9781 188.751C76.1553 188.55 76.1365 188.243 75.9361 188.064L74.4859 186.775C74.2875 186.599 73.9799 186.616 73.8031 186.818C73.6259 187.019 73.6448 187.326 73.8452 187.505L75.2953 188.794Z" fill="#1E2F37"></path>
    <path d="M78.518 191.004C78.3408 191.205 78.3596 191.512 78.56 191.691L80.0102 192.979C80.2109 193.157 80.5177 193.137 80.693 192.936C80.8702 192.735 80.8513 192.428 80.6509 192.249L79.2008 190.961C79.0004 190.783 78.6947 190.802 78.518 191.004Z" fill="#1E2F37"></path>
    <path d="M73.7768 192.088L75.227 193.377C75.425 193.553 75.7328 193.537 75.9098 193.334C76.087 193.133 76.0681 192.826 75.8677 192.647L74.4176 191.358C74.2182 191.181 73.9124 191.2 73.7348 191.401C73.5576 191.602 73.5764 191.909 73.7768 192.088Z" fill="#1E2F37"></path>
    <path d="M78.4936 196.275L79.9438 197.564C80.1446 197.742 80.4513 197.721 80.6265 197.521C80.8037 197.319 80.7849 197.013 80.5845 196.834L79.1343 195.546C78.9345 195.369 78.6287 195.386 78.4515 195.589C78.2743 195.79 78.2933 196.097 78.4936 196.275Z" fill="#1E2F37"></path>
    <path d="M79.1558 186.176C78.9569 185.999 78.6503 186.018 78.473 186.219C78.2958 186.421 78.3147 186.727 78.5151 186.906L79.9653 188.195C80.1632 188.371 80.4711 188.355 80.6481 188.152C80.8253 187.951 80.8064 187.644 80.606 187.466L79.1558 186.176Z" fill="#1E2F37"></path>
    <path d="M85.361 192.337C85.5382 192.136 85.5193 191.829 85.319 191.65L83.8687 190.362C83.6689 190.185 83.3631 190.202 83.1859 190.405C83.0087 190.606 83.0276 190.913 83.228 191.092L84.6782 192.38C84.879 192.558 85.1857 192.538 85.361 192.337Z" fill="#1E2F37"></path>
    <path d="M61.5922 199.604C61.7902 199.78 62.098 199.763 62.275 199.561C62.4522 199.359 62.4333 199.053 62.233 198.874L60.7828 197.585C60.5839 197.408 60.2772 197.425 60.1 197.628C59.9228 197.829 59.9417 198.136 60.1421 198.314L61.5922 199.604Z" fill="#1E2F37"></path>
    <path d="M64.8129 201.817C64.6357 202.019 64.6546 202.325 64.8549 202.504L66.3051 203.792C66.5059 203.97 66.8126 203.95 66.9879 203.749C67.1651 203.548 67.1462 203.241 66.9458 203.063L65.4957 201.774C65.2958 201.597 64.9901 201.616 64.8129 201.817Z" fill="#1E2F37"></path>
    <path d="M60.0737 202.899L61.5239 204.188C61.7219 204.365 62.0297 204.348 62.2067 204.145C62.3839 203.944 62.365 203.637 62.1646 203.459L60.7144 202.169C60.5159 201.993 60.2092 202.011 60.0316 202.212C59.8544 202.413 59.8733 202.72 60.0737 202.899Z" fill="#1E2F37"></path>
    <path d="M64.7885 207.089L66.2387 208.377C66.4394 208.555 66.7462 208.535 66.9215 208.335C67.0987 208.133 67.0798 207.826 66.8794 207.648L65.4293 206.36C65.2294 206.182 64.9237 206.2 64.7465 206.402C64.5693 206.604 64.5882 206.911 64.7885 207.089Z" fill="#1E2F37"></path>
    <path d="M65.4527 196.986C65.2523 196.808 64.9467 196.827 64.7699 197.029C64.5927 197.23 64.6116 197.537 64.812 197.716L66.2622 199.004C66.463 199.182 66.7697 199.162 66.945 198.961C67.1222 198.76 67.1033 198.453 66.9029 198.274L65.4527 196.986Z" fill="#1E2F37"></path>
    <path d="M71.6578 203.152C71.835 202.95 71.8161 202.643 71.6158 202.465L70.1656 201.176C69.9672 200.999 69.6609 201.016 69.4828 201.218C69.3056 201.42 69.3245 201.727 69.5249 201.905L70.975 203.194C71.1729 203.371 71.4808 203.354 71.6578 203.152Z" fill="#1E2F37"></path>
    <path d="M100.523 72.0043H148.819C149.086 72.0043 149.303 71.7867 149.303 71.5179C149.303 71.249 149.086 71.0315 148.819 71.0315H100.523C100.255 71.0315 100.039 71.249 100.039 71.5179C100.039 71.7867 100.255 72.0043 100.523 72.0043Z" fill="#1E2F37"></path>
    <path d="M299.227 44.2913C299.854 44.4167 300.337 44.5466 300.814 44.0675C301.316 43.5173 300.681 43.0445 300.127 43.1141C299.807 43.1435 299.895 43.3376 299.798 43.3963C299.74 43.4352 299.662 43.3574 299.595 43.3671C299.537 43.3768 299.498 43.4352 299.45 43.4644C299.369 43.5051 299.234 43.4587 299.15 43.2893C299.15 43.26 299.072 43.1628 299.053 43.1433C298.995 43.1044 298.985 43.1239 298.927 43.1628C298.591 43.3708 298.568 43.4544 298.54 43.7368C298.472 44.4195 298.937 44.2759 299.227 44.2913Z" fill="#1E2F37"></path>
    <path d="M310.478 31.2164C311.194 31.0428 311.782 30.4523 311.954 29.7322C312.321 28.201 310.983 26.8601 309.46 27.2285C308.745 27.4016 308.159 27.991 307.987 28.7096C307.621 30.2397 308.955 31.5855 310.478 31.2164Z" fill="#FF6B26"></path>
    <path d="M97.8926 165.345C97.8926 164.209 96.9758 163.291 95.8463 163.291C94.7168 163.291 93.8027 164.209 93.8027 165.345C93.8027 166.48 94.7168 167.402 95.8463 167.402C96.9758 167.402 97.8926 166.48 97.8926 165.345Z" fill="#FF6B26"></path>
    <path d="M285.287 118.167C285.287 119.303 286.201 120.224 287.331 120.224C288.46 120.224 289.377 119.303 289.377 118.167C289.377 117.032 288.46 116.113 287.331 116.113C286.201 116.113 285.287 117.032 285.287 118.167Z" fill="#1E2F37"></path>
    <path d="M126.392 158.384L129.872 155.859C130.089 155.702 130.137 155.398 129.981 155.18C129.826 154.962 129.523 154.913 129.305 155.07L125.826 157.596C125.609 157.753 125.56 158.057 125.717 158.275C125.871 158.491 126.174 158.543 126.392 158.384Z" fill="#1E2F37"></path>
    <path d="M51.1837 191.244C51.3905 191.416 51.6947 191.386 51.8651 191.18C52.0352 190.973 52.0068 190.666 51.8009 190.495C50.9418 189.78 50.0303 189.112 49.0919 188.509C48.866 188.367 48.5669 188.433 48.4237 188.659C48.2801 188.885 48.3458 189.186 48.5712 189.33C49.476 189.911 50.3548 190.554 51.1837 191.244Z" fill="#1E2F37"></path>
    <path d="M28.3619 99.4056C29.4914 99.4056 30.4081 98.4841 30.4081 97.3486C30.4081 96.2132 29.4914 95.2944 28.3619 95.2944C27.2324 95.2944 26.3184 96.2132 26.3184 97.3486C26.3184 98.4841 27.2324 99.4056 28.3619 99.4056Z" fill="#1E2F37"></path>
    <path d="M12.8118 66.0229L16.292 63.4974C16.5089 63.3402 16.5575 63.0361 16.4011 62.8186C16.2457 62.6015 15.9442 62.5517 15.7259 62.7089L12.2457 65.2345C12.0288 65.3917 11.9801 65.6957 12.1365 65.9132C12.2926 66.1313 12.5956 66.1802 12.8118 66.0229Z" fill="#1E2F37"></path>
    <path d="M18.6768 31.4038C20.3652 32.2659 21.9727 33.328 23.454 34.5606C23.6595 34.7315 23.9646 34.7033 24.1355 34.496C24.3056 34.289 24.2772 33.9826 24.0712 33.8111C22.5346 32.5328 20.8675 31.4313 19.1153 30.5364C18.8767 30.4153 18.5856 30.5098 18.4646 30.7497C18.3437 30.9891 18.4387 31.2822 18.6768 31.4038Z" fill="#1E2F37"></path>
    <path d="M211.189 116.113C211.189 117.248 212.103 118.17 213.233 118.17C214.363 118.17 215.279 117.248 215.279 116.113C215.279 114.977 214.363 114.059 213.233 114.059C212.103 114.059 211.189 114.977 211.189 116.113Z" fill="#FF6B26"></path>
    <path d="M236.552 4.04947C237.268 3.87589 237.856 3.28535 238.028 2.56535C238.396 1.0341 237.057 -0.30683 235.535 0.0616146C234.82 0.234728 234.233 0.824112 234.061 1.54279C233.695 3.07273 235.029 4.41861 236.552 4.04947Z" fill="#FF6B26"></path>
    <path d="M271.055 13.2555L274.534 10.7299C274.751 10.5727 274.8 10.2686 274.643 10.0511C274.486 9.83208 274.184 9.78371 273.967 9.94139L270.488 12.467C270.271 12.6242 270.222 12.9282 270.379 13.1458C270.535 13.3632 270.837 13.4131 271.055 13.2555Z" fill="#1E2F37"></path>
    <path d="M319.88 128.025C321.569 128.886 323.177 129.949 324.657 131.181C324.864 131.352 325.168 131.324 325.338 131.117C325.509 130.91 325.48 130.603 325.275 130.432C323.738 129.153 322.071 128.052 320.319 127.157C320.08 127.036 319.79 127.131 319.668 127.371C319.547 127.611 319.642 127.903 319.88 128.025Z" fill="#1E2F37"></path>
    <path d="M312.772 103.05L309.292 105.576C309.076 105.733 309.027 106.037 309.184 106.255C309.34 106.473 309.642 106.522 309.859 106.364L313.339 103.838C313.556 103.681 313.605 103.377 313.448 103.159C313.291 102.94 312.988 102.893 312.772 103.05Z" fill="#1E2F37"></path>
    <path d="M136.022 191.222C136.229 191.395 136.534 191.365 136.703 191.158C136.874 190.952 136.845 190.645 136.639 190.474C135.103 189.195 133.435 188.094 131.684 187.199C131.444 187.078 131.154 187.173 131.033 187.413C130.912 187.652 131.007 187.946 131.245 188.068C132.933 188.928 134.54 189.99 136.022 191.222Z" fill="#1E2F37"></path>
    <path d="M142.677 15.9882C143.393 15.8146 143.981 15.2241 144.153 14.5041C144.521 12.9728 143.182 11.6319 141.66 12.0003C140.945 12.1734 140.358 12.7627 140.186 13.4814C139.82 15.0114 141.154 16.3573 142.677 15.9882Z" fill="#1E2F37"></path>
    <path d="M78.6372 11.2224C79.7667 11.2224 80.6835 10.3008 80.6835 9.16539C80.6835 8.02997 79.7667 7.11118 78.6372 7.11118C77.5077 7.11118 76.5938 8.02989 76.5938 9.16539C76.5938 10.3008 77.5077 11.2224 78.6372 11.2224Z" fill="#FF6B26"></path>
    <path d="M219.975 84.6233C220.145 84.4163 220.116 84.1094 219.91 83.9384C218.373 82.6606 216.706 81.5591 214.955 80.6642C214.719 80.5445 214.426 80.638 214.305 80.8775C214.183 81.1169 214.279 81.4099 214.517 81.5316C216.205 82.3937 217.812 83.4558 219.294 84.688C219.496 84.8571 219.801 84.8327 219.975 84.6233Z" fill="#1E2F37"></path>
  </g>
  <defs>
    <clipPath id="clip0_1_7130">
      <rect width="330" height="220" fill="white"></rect>
    </clipPath>
  </defs>
</svg>
