<?xml version="1.0" encoding="UTF-8"?>
<svg xmlns="http://www.w3.org/2000/svg" width="500" height="auto" viewBox="0 0 330 220" fill="none">
  <g clip-path="url(#clip0_1_7582)">
    <!-- <rect width="330" height="220" fill="white"></rect> -->
    <path d="M253.675 121.479H75.3238V3.80424H253.675V121.479Z" fill="white"></path>
    <path d="M75.6308 121.171H253.369V4.11308H75.6308V121.171ZM253.675 121.786H75.3235C75.1538 121.786 75.0164 121.648 75.0164 121.479V3.80512C75.0164 3.63512 75.1538 3.49855 75.3235 3.49855H253.675C253.845 3.49855 253.983 3.63512 253.983 3.80512V121.479C253.983 121.648 253.845 121.786 253.675 121.786Z" fill="#25292B"></path>
    <path d="M79.5806 111.308H249.42V14.6144H79.5806V111.308ZM249.728 111.921H79.2734C79.1037 111.921 78.9663 111.784 78.9663 111.614V14.3064C78.9663 14.1378 79.1037 13.9998 79.2734 13.9998H249.728C249.897 13.9998 250.035 14.1378 250.035 14.3064V111.614C250.035 111.784 249.897 111.921 249.728 111.921Z" fill="#25292B"></path>
    <path d="M253.676 121.478H75.3243L37.3074 155.909H291.694L253.676 121.478Z" fill="white"></path>
    <path d="M38.1039 155.604H290.896L253.557 121.786H75.4425L38.1039 155.604ZM291.694 156.219H37.3071C37.1803 156.219 37.0663 156.141 37.0207 156.022C36.9747 155.904 37.0069 155.769 37.101 155.684L75.1179 121.251C75.1743 121.201 75.2479 121.172 75.324 121.172H253.676C253.752 121.172 253.826 121.201 253.882 121.251L291.9 155.684C291.993 155.769 292.025 155.904 291.979 156.022C291.935 156.141 291.82 156.219 291.694 156.219Z" fill="#25292B"></path>
    <path d="M200.904 136.102H128.095L112.575 150.159H216.425L200.904 136.102Z" fill="#25292B"></path>
    <path d="M291.683 76.5437H155.641V-17.9982H291.683V76.5437Z" fill="#020202"></path>
    <path d="M285.046 82.7809H143.735V-11.761H285.046V82.7809Z" fill="white"></path>
    <path d="M285.046 1.97931H143.735V-11.7761H285.046V1.97931Z" fill="#B9BEC6"></path>
    <path d="M144.043 82.4714H284.738V-11.456H144.043V82.4714ZM285.046 83.0859H143.735C143.565 83.0859 143.428 82.948 143.428 82.7794V-11.7626C143.428 -11.9326 143.565 -12.0691 143.735 -12.0691H285.046C285.216 -12.0691 285.353 -11.9326 285.353 -11.7626V82.7794C285.353 82.948 285.216 83.0859 285.046 83.0859Z" fill="#25292B"></path>
    <path d="M273.666 56.482L235.848 56.489L235.777 18.8654L273.595 18.8584L273.666 56.482Z" fill="#FFB593"></path>
    <path d="M270.849 53.687L238.654 53.6926L246.972 43.6216L251.641 48.1742L259.93 36.6429L270.849 53.687Z" fill="#FF6B26"></path>
    <path d="M251.671 32.7783C251.675 34.7431 250.077 36.3359 248.102 36.3359C246.128 36.3373 244.524 34.7445 244.52 32.7797C244.515 30.8148 246.114 29.2206 248.088 29.2206C250.064 29.2206 251.668 30.8134 251.671 32.7783Z" fill="#FF6B26"></path>
    <path d="M223.664 28.6525H155.945V20.8348H223.664V28.6525Z" fill="#B9BEC6"></path>
    <path d="M223.235 42.4158H156.61C156.44 42.4158 156.303 42.2778 156.303 42.1078C156.303 41.9378 156.44 41.8013 156.61 41.8013H223.235C223.405 41.8013 223.543 41.9378 223.543 42.1078C223.543 42.2778 223.405 42.4158 223.235 42.4158Z" fill="#25292B"></path>
    <path d="M156.61 49.6074C156.44 49.6074 156.303 49.4708 156.303 49.3008C156.303 49.1308 156.44 48.9928 156.61 48.9928H222.872C223.041 48.9928 223.179 49.1308 223.179 49.3008C223.179 49.4694 223.041 49.6074 222.872 49.6074H156.61Z" fill="#25292B"></path>
    <path d="M222.872 56.7989L166.909 56.7752C166.739 56.7752 166.603 56.6372 166.603 56.4672C166.603 56.2986 166.739 56.1607 166.909 56.1607L222.872 56.1844C223.04 56.1844 223.178 56.3209 223.178 56.4909C223.178 56.6609 223.04 56.7989 222.872 56.7989Z" fill="#25292B"></path>
    <path d="M161.3 56.7054L37.3456 28.8671L43.8806 -0.552868L167.834 27.2855L161.3 56.7054Z" fill="white"></path>
    <path d="M37.713 28.6353L161.067 56.3384L167.469 27.519L44.1146 -0.184109L37.713 28.6353ZM161.301 57.0129C161.277 57.0129 161.255 57.0101 161.233 57.0059L37.2795 29.1676C37.1142 29.1299 37.0101 28.9669 37.0466 28.8011L43.5816 -0.617485C43.5993 -0.696918 43.6482 -0.766598 43.7169 -0.811192C43.7858 -0.854389 43.8692 -0.869724 43.9487 -0.851608L167.902 26.9867C168.068 27.0243 168.173 27.1874 168.135 27.3532L161.601 56.7732C161.583 56.8526 161.534 56.9209 161.466 56.9655C161.415 56.9962 161.358 57.0129 161.301 57.0129Z" fill="#25292B"></path>
    <path d="M134.387 42.9446L45.8775 23.066L49.1462 8.35188L137.654 28.2304L134.387 42.9446Z" fill="#FF6B26" fill-opacity="0.5"></path>
    <path d="M148.588 31.6475C147.613 31.6475 146.655 31.9235 145.812 32.4586C144.628 33.2097 143.808 34.3802 143.503 35.7543C142.876 38.5789 144.651 41.391 147.459 42.0223C148.815 42.3261 150.209 42.0836 151.383 41.3381C152.567 40.587 153.386 39.4164 153.691 38.0438C154.318 35.2177 152.544 32.4056 149.735 31.7743C149.353 31.6893 148.969 31.6475 148.588 31.6475ZM148.608 42.765C148.181 42.765 147.752 42.7177 147.326 42.6215C144.186 41.9164 142.203 38.7768 142.904 35.6205C143.244 34.0862 144.161 32.7791 145.482 31.9402C146.796 31.1069 148.354 30.8351 149.869 31.1751C153.008 31.8803 154.991 35.0212 154.29 38.1762C153.95 39.7104 153.035 41.0176 151.712 41.8565C150.769 42.4557 149.699 42.765 148.608 42.765Z" fill="#FF6B26"></path>
    <path d="M154.924 46.8552C154.823 46.8552 154.722 46.805 154.664 46.713L151.541 41.7646C151.45 41.6211 151.492 41.4316 151.636 41.341C151.78 41.2504 151.969 41.2936 152.059 41.4372L155.183 46.3841C155.274 46.5277 155.231 46.7172 155.087 46.8078C155.037 46.8398 154.98 46.8552 154.924 46.8552Z" fill="#FF6B26"></path>
    <path d="M46.2435 22.8331L134.152 42.5751L137.288 28.4602L49.3791 8.71817L46.2435 22.8331ZM134.387 43.2496C134.364 43.2496 134.341 43.2482 134.32 43.2426L45.8102 23.3655C45.6449 23.3278 45.5408 23.1634 45.5774 22.999L48.8461 8.28341C48.8638 8.20398 48.9127 8.13429 48.9814 8.09109C49.0504 8.04789 49.1338 8.03258 49.2133 8.0507L137.721 27.9278C137.887 27.9655 137.992 28.1299 137.954 28.2943L134.686 43.0099C134.668 43.0893 134.619 43.159 134.551 43.2022C134.501 43.2343 134.444 43.2496 134.387 43.2496Z" fill="#25292B"></path>
    <path d="M77.6467 231.917H50.7338L62.5694 209.173H81.5917L77.6467 231.917Z" fill="#25292B"></path>
    <path d="M145.65 234.234C145.747 233.59 145.797 232.932 145.797 232.262C145.797 224.906 139.831 218.943 132.472 218.943C125.112 218.943 119.146 224.906 119.146 232.262C119.146 232.932 119.197 233.59 119.292 234.234H145.65Z" fill="#25292B"></path>
    <path d="M143.348 231.216H115.121L118.574 213.357H132.99L143.348 231.216Z" fill="#25292B"></path>
    <path d="M139.309 224.561C139.203 224.561 139.1 224.506 139.043 224.407L136.342 219.752C136.257 219.605 136.307 219.417 136.454 219.332C136.601 219.247 136.789 219.297 136.874 219.444L139.574 224.1C139.659 224.247 139.609 224.434 139.462 224.52C139.413 224.548 139.36 224.561 139.309 224.561Z" fill="white"></path>
    <path d="M119.843 149.977L118.209 166.893L107.028 166.305C113.411 156.943 119.843 149.977 119.843 149.977Z" fill="white"></path>
    <path d="M107.592 166.029L117.932 166.571L119.449 150.875C117.72 152.818 112.647 158.675 107.592 166.029ZM118.21 167.201C118.205 167.201 118.199 167.201 118.194 167.201L107.013 166.614C106.902 166.608 106.803 166.543 106.753 166.442C106.704 166.343 106.713 166.225 106.775 166.133C113.098 156.859 119.554 149.839 119.618 149.769C119.708 149.673 119.849 149.644 119.969 149.698C120.09 149.751 120.163 149.876 120.15 150.007L118.515 166.923C118.5 167.081 118.367 167.201 118.21 167.201Z" fill="#25292B"></path>
    <path d="M144.662 180.719L139.094 214.861H113.58L118.21 166.894L119.844 149.978C119.844 149.978 113.412 156.944 107.029 166.306C104.086 170.623 101.152 175.445 98.8671 180.329L82.7009 214.861H57.1875L77.4851 163.849C76.5329 163.548 75.5531 163.207 74.5824 162.839C71.2035 161.556 67.96 159.927 66.5408 158.56C63.5489 155.688 61.8594 151.72 61.8594 147.576L61.3589 134.057H83.4903L108.73 135.838C108.73 135.838 136.286 140.378 141.913 150.009C142.515 151.04 143.029 152.119 143.458 153.213C147.225 160.689 146.779 166.172 144.662 180.719Z" fill="white"></path>
    <path d="M113.919 214.553H138.833L144.358 180.671C146.491 166.019 146.87 160.667 143.184 153.35C142.734 152.209 142.221 151.144 141.648 150.163C136.158 140.768 108.954 136.186 108.68 136.142L83.4683 134.363H61.6775L62.1662 147.564C62.1664 151.617 63.8381 155.539 66.7532 158.337C68.0386 159.576 71.006 161.151 74.6913 162.551C75.6539 162.917 76.6252 163.255 77.5777 163.556C77.6589 163.581 77.7258 163.64 77.7624 163.718C77.7989 163.794 77.802 163.884 77.7702 163.963L57.6402 214.553H82.5056L98.5886 180.199C100.627 175.841 103.381 171.109 106.775 166.133C113.097 156.859 119.554 149.838 119.618 149.769C119.707 149.673 119.849 149.643 119.969 149.698C120.089 149.751 120.162 149.876 120.149 150.007L113.919 214.553ZM139.094 215.168H113.58C113.494 215.168 113.411 215.132 113.353 215.068C113.295 215.004 113.266 214.917 113.274 214.831L119.448 150.875C117.684 152.858 112.439 158.916 107.282 166.48C103.907 171.428 101.17 176.133 99.1447 180.458L82.9789 214.991C82.9285 215.098 82.8198 215.168 82.7008 215.168H57.1873C57.0855 215.168 56.9902 215.118 56.9331 215.033C56.8758 214.949 56.8641 214.842 56.902 214.747L77.0778 164.041C76.2158 163.762 75.3411 163.456 74.473 163.126C70.714 161.697 67.669 160.072 66.3275 158.781C63.2928 155.868 61.552 151.784 61.552 147.575L61.0518 134.068C61.0484 133.984 61.0796 133.904 61.1375 133.844C61.1954 133.784 61.2753 133.75 61.3586 133.75H83.4901L108.752 135.533C109.911 135.722 136.544 140.209 142.179 149.852C142.767 150.861 143.294 151.954 143.744 153.099C147.499 160.55 147.12 165.963 144.966 180.763C144.966 180.765 144.966 180.766 144.966 180.768L139.397 214.91C139.372 215.058 139.244 215.168 139.094 215.168Z" fill="#25292B"></path>
    <path d="M139.093 215.168H113.579C113.492 215.168 113.409 215.132 113.35 215.066C113.292 215.002 113.264 214.916 113.273 214.829L118.076 168.985C118.094 168.817 118.235 168.693 118.414 168.712C118.582 168.73 118.705 168.881 118.687 169.049L113.92 214.553H138.833L144.359 180.67C147.393 159.833 145.561 151.636 136.514 145.594C129.662 141.016 111.01 136.183 110.822 136.135C110.658 136.093 110.559 135.926 110.601 135.761C110.644 135.597 110.814 135.498 110.975 135.54C111.164 135.588 129.917 140.447 136.855 145.082C141.728 148.338 144.426 152.239 145.607 157.734C146.74 163.016 146.549 169.902 144.966 180.763L139.397 214.91C139.372 215.059 139.244 215.168 139.093 215.168Z" fill="#25292B"></path>
    <path d="M125.881 62.8757L122.595 71.3246L121.824 66.3484L122.618 64.1912C123.062 62.9844 124.394 62.356 125.61 62.781L125.881 62.8757Z" fill="#DFE3E8"></path>
    <path d="M138.574 69.3689L137.294 79.0259L125.489 82.4735L122.027 73.4756C121.096 71.0564 121.076 68.3808 121.971 65.9478L122.519 64.4595L138.574 69.3689Z" fill="#DFE3E8"></path>
    <path d="M132.917 53.3126L126.402 71.1008L123.146 69.9052L129.662 52.1169C129.979 51.2557 130.934 50.814 131.797 51.1303L131.929 51.1791C132.792 51.4954 133.235 52.4514 132.917 53.3126Z" fill="#DFE3E8"></path>
    <path d="M133.826 60.9751L130.013 71.3345L126.498 69.9145L130.57 59.778C130.889 58.9113 131.851 58.4667 132.718 58.7858L132.832 58.8276C133.7 59.1454 134.145 60.1069 133.826 60.9751Z" fill="#DFE3E8"></path>
    <path d="M140.333 63.379L136.581 73.5726L133.325 72.377L137.077 62.182C137.399 61.3069 138.369 60.8582 139.244 61.1801L139.329 61.2121C140.206 61.5326 140.655 62.5039 140.333 63.379Z" fill="#DFE3E8"></path>
    <path d="M140.33 70.8859L137.327 78.9515L134.055 77.7503L139.119 64.0827L140.301 67.1429C140.765 68.3455 140.776 69.6749 140.33 70.8859Z" fill="#DFE3E8"></path>
    <path d="M135.67 60.7099L135.847 60.7754C136.697 61.0876 137.089 62.1494 136.722 63.1472L133.371 73.2627L129.64 71.7786L133.465 61.9515C133.833 60.9538 134.82 60.3978 135.67 60.7099Z" fill="#DFE3E8"></path>
    <path d="M137.438 78.1768L137.09 92.7739L124.494 88.7564L124.783 73.5294L137.438 78.1768Z" fill="#DFE3E8"></path>
    <path d="M137.32 83.1516L137.09 92.7739L124.494 88.7564L124.574 84.5424L132.392 83.6895L137.32 83.1516Z" fill="#25292B"></path>
    <path d="M132.538 64.7775C132.503 64.7775 132.467 64.7719 132.432 64.7594C132.273 64.7008 132.193 64.5239 132.251 64.365L133.537 60.8686C133.663 60.5258 133.647 60.1552 133.494 59.8249C133.341 59.4932 133.068 59.2424 132.725 59.1156L132.612 59.0752C131.904 58.8146 131.117 59.1783 130.858 59.8848L129.396 63.8564C129.337 64.0152 129.161 64.0974 129.001 64.0389C128.843 63.9804 128.761 63.8034 128.819 63.6445L130.281 59.673C130.658 58.6488 131.8 58.122 132.824 58.4983L132.937 58.5401C133.434 58.7226 133.83 59.0863 134.052 59.5671C134.275 60.0465 134.297 60.5844 134.113 61.0805L132.827 64.5768C132.782 64.7008 132.664 64.7775 132.538 64.7775Z" fill="#25292B"></path>
    <path d="M135.607 66.4868C135.571 66.4868 135.536 66.4813 135.5 66.4673C135.341 66.4102 135.26 66.2332 135.319 66.0743L136.533 62.7731C136.655 62.44 136.641 62.0791 136.492 61.7558C136.342 61.4339 136.076 61.1887 135.742 61.066L135.564 61.0005C134.874 60.7469 134.107 61.1023 133.853 61.7907L132.681 64.9748C132.622 65.1351 132.445 65.2159 132.287 65.1574C132.128 65.0989 132.045 64.9219 132.104 64.763L133.276 61.5789C133.647 60.5713 134.77 60.0543 135.776 60.4236L135.953 60.4891C136.442 60.6675 136.831 61.027 137.05 61.498C137.267 61.969 137.289 62.4986 137.11 62.9863L135.896 66.2862C135.85 66.4102 135.731 66.4868 135.607 66.4868Z" fill="#25292B"></path>
    <path d="M123.48 69.3079C123.445 69.3079 123.41 69.3009 123.375 69.2884C123.216 69.2298 123.134 69.0529 123.192 68.894L129.373 52.0143C129.749 50.9942 130.885 50.4703 131.903 50.8437L132.036 50.8925C132.53 51.0737 132.925 51.4374 133.145 51.914C133.367 52.3919 133.389 52.927 133.206 53.4204L129.138 64.5602C129.079 64.7204 128.902 64.8012 128.744 64.7441C128.584 64.6856 128.502 64.5086 128.561 64.3497L132.629 53.2086C132.755 52.8685 132.739 52.5006 132.588 52.1732C132.436 51.8443 132.165 51.5948 131.824 51.4694L131.691 51.4207C130.989 51.1629 130.209 51.5238 129.95 52.2247L123.769 69.1058C123.724 69.2298 123.606 69.3079 123.48 69.3079Z" fill="#25292B"></path>
    <path d="M137.089 93.0813C137.057 93.0813 137.027 93.0757 136.996 93.066L124.4 89.0471C124.271 89.0066 124.184 88.8854 124.186 88.7488L124.346 80.3613L121.739 73.586C120.876 71.3424 120.774 68.8382 121.453 66.5334C121.501 66.3717 121.671 66.277 121.834 66.3257C121.997 66.3745 122.09 66.5445 122.042 66.7075C121.402 68.8828 121.498 71.2476 122.313 73.3644L124.941 80.1968C124.955 80.233 124.962 80.2735 124.961 80.3125L124.805 88.5315L136.791 92.3567L137.117 78.7434C137.119 78.7099 137.124 78.6765 137.137 78.6444L140.042 70.778C140.462 69.6381 140.452 68.3867 140.014 67.2524L139.341 65.5091C139.316 65.4408 139.315 65.3656 139.338 65.2973L140.042 63.2767C140.17 62.9255 140.156 62.5507 140.002 62.2162C139.846 61.8818 139.57 61.6282 139.224 61.5014L139.139 61.4693C138.424 61.2073 137.627 61.5738 137.364 62.2887L135.707 66.7912C135.648 66.9514 135.473 67.0322 135.313 66.9737C135.154 66.9152 135.073 66.7382 135.131 66.5794L136.788 62.0769C137.167 61.0443 138.317 60.5134 139.35 60.8924L139.436 60.9244C139.936 61.1084 140.335 61.4749 140.559 61.9584C140.782 62.442 140.804 62.9841 140.621 63.4843L139.956 65.3921L140.587 67.0308C141.079 68.3045 141.09 69.7106 140.619 70.9912L137.73 78.8103L137.396 92.7803C137.393 92.8778 137.346 92.967 137.268 93.0242C137.215 93.0618 137.152 93.0813 137.089 93.0813Z" fill="#25292B"></path>
    <path d="M130.931 127.965C124.977 127.862 120.234 122.958 120.337 117.011L120.775 86.6236L142.429 86.6668L141.898 117.383C141.796 123.33 136.885 128.067 130.931 127.965Z" fill="#25292B"></path>
    <path d="M130.936 127.658C136.727 127.754 141.49 123.145 141.591 117.377L142.116 86.9731L121.077 86.9312L120.643 117.016C120.595 119.81 121.639 122.456 123.583 124.466C125.527 126.477 128.139 127.609 130.936 127.658ZM131.12 128.274C131.054 128.274 130.99 128.273 130.926 128.271C127.964 128.221 125.2 127.021 123.142 124.893C121.083 122.766 119.978 119.963 120.029 117.005L120.467 86.6191C120.47 86.4505 120.607 86.3167 120.775 86.3167C120.775 86.3167 120.775 86.3167 120.775 86.3167L142.428 86.3599C142.511 86.3599 142.59 86.3933 142.647 86.4519C142.706 86.5104 142.736 86.5898 142.735 86.672L142.205 117.388C142.101 123.43 137.147 128.274 131.12 128.274Z" fill="#25292B"></path>
    <path d="M138.856 109.699L119.575 90.4338C111.743 82.6078 101.118 78.2112 90.0385 78.2112H77.5565C68.9515 78.2112 61.1063 83.1317 57.3691 90.8741L47.8692 110.553C45.2512 115.994 46.8336 123.997 52.2805 126.612C55.9624 128.379 59.0406 128.247 62.4576 126.608L61.3692 138.838L113.933 136.641L111.124 114.692L123.608 124.93L138.856 109.699Z" fill="#25292B"></path>
    <path d="M123.608 125.237C123.539 125.237 123.47 125.214 123.413 125.167L100.378 106.276C100.247 106.168 100.228 105.975 100.335 105.843C100.442 105.712 100.636 105.693 100.767 105.801L123.802 124.692C123.934 124.799 123.953 124.993 123.845 125.124C123.785 125.198 123.697 125.237 123.608 125.237Z" fill="white"></path>
    <path d="M138.856 110.008C138.778 110.008 138.699 109.978 138.639 109.918L119.358 90.6529C111.413 82.7154 101.157 78.5195 89.6968 78.5195C89.527 78.5195 89.3896 78.3816 89.3896 78.213C89.3896 78.043 89.527 77.905 89.6968 77.905C101.323 77.905 111.73 82.1636 119.792 90.2181L139.073 109.484C139.193 109.603 139.193 109.798 139.073 109.918C139.014 109.978 138.934 110.008 138.856 110.008Z" fill="#25292B"></path>
    <path d="M61.3589 124.425C61.3426 124.425 61.3265 124.425 61.31 124.422C61.1427 124.394 61.0284 124.237 61.0553 124.07L65.8009 94.4574C65.8278 94.2902 65.9853 94.1759 66.1528 94.2038C66.3201 94.2303 66.4344 94.3877 66.4074 94.555L61.6619 124.167C61.6376 124.318 61.5071 124.425 61.3589 124.425Z" fill="white"></path>
    <path d="M58.5328 127.817C58.5328 127.817 59.5824 127.728 60.6836 127.367C61.4667 127.109 62.4577 126.607 62.4577 126.607L58.5328 127.817Z" fill="#25292B"></path>
    <path d="M95.9481 61.8796C95.1785 61.8796 94.5281 63.0027 94.5281 64.3321C94.5281 65.6616 95.1785 66.7847 95.9481 66.7847C96.7179 66.7847 97.3682 65.6616 97.3682 64.3321C97.3682 63.0027 96.7179 61.8796 95.9481 61.8796ZM95.9481 67.3993C94.8074 67.3993 93.9138 66.0518 93.9138 64.3321C93.9138 62.6125 94.8074 61.265 95.9481 61.265C97.089 61.265 97.9825 62.6125 97.9825 64.3321C97.9825 66.0518 97.089 67.3993 95.9481 67.3993Z" fill="#25292B"></path>
    <path d="M95.3707 63.4363C95.3707 68.2091 94.1534 73.5505 89.7455 73.5505C85.3373 73.5505 79.4078 68.2091 79.4078 63.4363C79.4078 58.6649 82.9812 54.7965 87.3892 54.7965C91.7973 54.7965 95.3707 58.6649 95.3707 63.4363Z" fill="#DFE3E8"></path>
    <path d="M87.3889 55.1053C83.1572 55.1053 79.7147 58.8427 79.7147 63.4372C79.7147 68.1724 85.6019 73.2448 89.7452 73.2448C94.545 73.2448 95.0632 66.3859 95.0632 63.4372C95.0632 58.8427 91.6206 55.1053 87.3889 55.1053ZM89.7452 73.8579C85.3482 73.8579 79.1003 68.4692 79.1003 63.4372C79.1003 58.5041 82.8185 54.4908 87.3889 54.4908C91.9592 54.4908 95.6776 58.5041 95.6776 63.4372C95.6776 70.0606 93.5155 73.8579 89.7452 73.8579Z" fill="#25292B"></path>
    <path d="M80.3215 78.5728H89.4826V63.4364H80.3215V78.5728Z" fill="#DFE3E8"></path>
    <path d="M80.6295 78.2656H89.1763V63.7438H80.6295V78.2656ZM89.4834 78.8802H80.3224C80.1525 78.8802 80.0153 78.7422 80.0153 78.5722V63.4358C80.0153 63.2672 80.1525 63.1292 80.3224 63.1292H89.4834C89.6533 63.1292 89.7905 63.2672 89.7905 63.4358V78.5722C89.7905 78.7422 89.6533 78.8802 89.4834 78.8802Z" fill="#25292B"></path>
    <path d="M89.4828 78.8802C89.313 78.8802 89.1756 78.7422 89.1756 78.5722V70.7811C89.1756 70.611 89.313 70.4731 89.4828 70.4731C89.6526 70.4731 89.7899 70.611 89.7899 70.7811V78.5722C89.7899 78.7422 89.6526 78.8802 89.4828 78.8802Z" fill="#25292B"></path>
    <path d="M91.4495 61.9646C91.4495 65.8358 89.3712 71.9199 84.4448 71.9199C78.3998 71.9199 77.4402 65.8358 77.4402 61.9646C77.4402 58.0948 80.5763 54.9566 84.4448 54.9566C88.3134 54.9566 91.4495 58.0948 91.4495 61.9646Z" fill="#25292B"></path>
    <path d="M94.2855 58.5288C94.2855 61.0385 91.1063 63.0731 87.1848 63.0731C83.2633 63.0731 80.0841 61.0385 80.0841 58.5288C80.0841 56.0205 83.2633 53.9859 87.1848 53.9859C91.1063 53.9859 94.2855 56.0205 94.2855 58.5288Z" fill="#25292B"></path>
    <path d="M97.6766 64.6398C97.6693 64.6398 97.6617 64.6398 97.6539 64.6398L90.0371 64.081C89.8679 64.0698 89.7407 63.9221 89.7532 63.7521C89.7656 63.5835 89.9093 63.4553 90.0821 63.4692L97.6988 64.0266C97.8681 64.0392 97.9952 64.1869 97.9827 64.3555C97.971 64.5171 97.8362 64.6398 97.6766 64.6398Z" fill="#25292B"></path>
    <path d="M92.973 64.6829C93.5688 66.0429 93.1336 67.5465 92.0009 68.044C90.8684 68.5401 89.4675 67.8406 88.8719 66.4805C88.2762 65.1218 88.7114 63.6168 89.8439 63.1193C90.9764 62.6232 92.3774 63.3228 92.973 64.6829Z" fill="#DFE3E8"></path>
    <path d="M87.7958 35.7902C91.9295 43.1118 89.2466 52.4581 81.8035 56.6637C74.3605 60.8694 64.9758 58.3429 60.8422 51.0214C56.7086 43.6998 59.3914 34.3535 66.8346 30.1478C74.2775 25.9422 83.6623 28.4673 87.7958 35.7902Z" fill="#25292B"></path>
    <path d="M72.8343 29.438C70.2703 29.438 67.7295 30.1013 65.4272 31.4029C58.264 35.451 55.6716 44.4755 59.6486 51.5197C61.5744 54.931 64.7358 57.3753 68.5505 58.4023C72.3677 59.4293 76.3806 58.9151 79.851 56.953C87.0141 52.9063 89.6066 43.8818 85.6298 36.8376C83.7041 33.4249 80.5423 30.9806 76.7277 29.955C75.4431 29.608 74.1353 29.438 72.8343 29.438ZM72.4447 59.5338C71.0895 59.5338 69.7287 59.3555 68.3908 58.9945C64.4158 57.9257 61.1211 55.377 59.1135 51.8207C54.9703 44.4825 57.667 35.0818 65.1248 30.8678C68.7371 28.8263 72.915 28.2911 76.8875 29.3614C80.8624 30.4316 84.1574 32.979 86.165 36.5352C90.3078 43.8749 87.6111 53.2742 80.1534 57.4882C77.7578 58.8427 75.1129 59.5338 72.4447 59.5338Z" fill="#25292B"></path>
    <path d="M89.5233 24.6645C92.4206 29.7969 90.54 36.3478 85.323 39.2951C80.106 42.2438 73.5281 40.4726 70.6307 35.3403C67.7334 30.2079 69.6138 23.6584 74.8309 20.7097C80.0479 17.7624 86.6259 19.5322 89.5233 24.6645Z" fill="#25292B"></path>
    <path d="M79.2069 15.2233C82.3542 20.7974 80.3116 27.9127 74.6447 31.115C68.9778 34.3173 61.8327 32.3943 58.6856 26.8202C55.5383 21.2447 57.5809 14.1294 63.2478 10.9271C68.9147 7.7248 76.0598 9.64787 79.2069 15.2233Z" fill="#25292B"></path>
    <path d="M69.9749 8.39869C68.0024 8.39869 66.0477 8.90871 64.2764 9.91065C58.766 13.0238 56.7715 19.9649 59.8303 25.3843C61.3116 28.0083 63.7434 29.8881 66.6773 30.6783C69.614 31.4684 72.7007 31.0726 75.3708 29.5634C80.8812 26.4489 82.8757 19.5078 79.8165 14.0898C78.3354 11.4658 75.9038 9.58596 72.9698 8.79584C71.9815 8.52968 70.9756 8.39869 69.9749 8.39869ZM69.6731 31.6899C68.6185 31.6899 67.5593 31.5506 66.5178 31.2705C63.4233 30.4386 60.8583 28.4542 59.2952 25.6853C56.0699 19.9719 58.169 12.6559 63.974 9.37554C66.7857 7.78692 70.0371 7.37025 73.1294 8.20218C76.2239 9.0355 78.789 11.0185 80.3518 13.7874C83.5774 19.5008 81.4784 26.8182 75.6732 30.0986C73.8085 31.1521 71.7501 31.6899 69.6731 31.6899Z" fill="#25292B"></path>
    <path d="M82.6088 234.942H88.0988V171.049H82.6088V234.942Z" fill="white"></path>
    <path d="M82.9156 234.637H87.7914V171.358H82.9156V234.637ZM88.0985 235.25H82.6085C82.4388 235.25 82.3014 235.113 82.3014 234.943V171.05C82.3014 170.88 82.4388 170.744 82.6085 170.744H88.0985C88.2684 170.744 88.4057 170.88 88.4057 171.05V234.943C88.4057 235.113 88.2684 235.25 88.0985 235.25Z" fill="#25292B"></path>
    <path d="M89.0102 104.415V121.55C89.0102 134.645 99.3553 145.261 112.116 145.261C124.878 145.261 135.223 155.877 135.223 168.971V171.084H71.9467C52.8159 171.084 37.3074 155.17 37.3074 135.538V104.415H89.0102Z" fill="white"></path>
    <path d="M37.6144 104.724V135.54C37.6144 154.971 53.0157 170.779 71.9464 170.779H134.916V168.973C134.916 156.069 124.688 145.569 112.116 145.569C99.2057 145.569 88.7026 134.795 88.7026 121.552V104.724H37.6144ZM135.222 171.394H71.9464C52.6769 171.394 37 155.31 37 135.54V104.417C37 104.247 37.1374 104.109 37.3071 104.109H89.0098C89.1796 104.109 89.317 104.247 89.317 104.417V121.552C89.317 134.456 99.5448 144.955 112.116 144.955C125.027 144.955 135.529 155.729 135.529 168.973V171.086C135.529 171.256 135.392 171.394 135.222 171.394Z" fill="#25292B"></path>
    <path d="M274.144 165.902L274.218 166.215L285.193 211.69L182.744 236.364L167.062 171.394L189.84 165.902L252.778 150.727L269.505 146.692L270.479 150.727L274.144 165.902Z" fill="white"></path>
    <path d="M254.213 145.73C254.118 145.73 254.02 145.741 253.924 145.764C253.604 145.842 253.332 146.038 253.16 146.32C252.988 146.6 252.936 146.931 253.013 147.25C253.173 147.911 253.839 148.319 254.502 148.16C254.823 148.082 255.095 147.886 255.266 147.604C255.437 147.324 255.49 146.993 255.412 146.674C255.277 146.109 254.77 145.73 254.213 145.73ZM254.214 148.808C253.379 148.808 252.62 148.24 252.416 147.395C252.301 146.916 252.379 146.42 252.636 145.999C252.894 145.578 253.3 145.283 253.781 145.167C254.771 144.927 255.772 145.539 256.01 146.529C256.126 147.009 256.048 147.504 255.79 147.925C255.532 148.346 255.127 148.641 254.646 148.757C254.501 148.792 254.356 148.808 254.214 148.808Z" fill="#25292B"></path>
    <path d="M259.419 144.474C259.324 144.474 259.227 144.486 259.131 144.509C258.81 144.586 258.539 144.784 258.367 145.064C258.196 145.345 258.143 145.676 258.221 145.995C258.38 146.657 259.047 147.064 259.709 146.905C260.03 146.828 260.301 146.63 260.473 146.35C260.644 146.069 260.697 145.738 260.619 145.418C260.484 144.853 259.977 144.474 259.419 144.474ZM259.421 147.554C258.586 147.554 257.826 146.984 257.623 146.14C257.507 145.66 257.585 145.164 257.843 144.743C258.101 144.323 258.506 144.027 258.987 143.911C259.977 143.673 260.979 144.284 261.217 145.274C261.333 145.754 261.254 146.25 260.997 146.671C260.739 147.091 260.333 147.387 259.853 147.503C259.708 147.537 259.563 147.554 259.421 147.554Z" fill="#25292B"></path>
    <path d="M264.625 143.22C264.53 143.22 264.434 143.231 264.336 143.255C264.016 143.332 263.744 143.529 263.573 143.81C263.401 144.091 263.348 144.421 263.426 144.742C263.585 145.402 264.254 145.809 264.915 145.65C265.235 145.574 265.507 145.376 265.678 145.096C265.851 144.814 265.903 144.484 265.826 144.164C265.689 143.601 265.182 143.22 264.625 143.22ZM264.625 146.3C263.791 146.3 263.032 145.731 262.829 144.885C262.713 144.406 262.791 143.91 263.049 143.489C263.306 143.068 263.712 142.773 264.193 142.657C265.184 142.419 266.184 143.031 266.422 144.02C266.538 144.499 266.46 144.995 266.202 145.416C265.944 145.837 265.539 146.133 265.06 146.248C264.913 146.283 264.768 146.3 264.625 146.3Z" fill="#25292B"></path>
    <path d="M167.432 171.622L182.969 235.994L284.822 211.464L269.278 147.064L167.432 171.622ZM182.742 236.671C182.604 236.671 182.479 236.578 182.444 236.437L166.763 171.467C166.743 171.388 166.757 171.304 166.799 171.234C166.842 171.165 166.911 171.115 166.99 171.096L269.432 146.395C269.598 146.355 269.763 146.456 269.802 146.621L274.441 165.83V165.832L274.517 166.145L285.491 211.619C285.51 211.698 285.498 211.782 285.454 211.851C285.413 211.921 285.343 211.971 285.265 211.989L182.815 236.663C182.791 236.669 182.767 236.671 182.742 236.671Z" fill="#25292B"></path>
    <path d="M167.053 171.669C166.914 171.669 166.788 171.575 166.754 171.434L165.265 165.256C165.246 165.178 165.258 165.093 165.301 165.025C165.343 164.955 165.412 164.905 165.491 164.886L267.94 140.212C268.104 140.173 268.271 140.273 268.31 140.439L269.803 146.619C269.843 146.785 269.742 146.951 269.577 146.99C269.415 147.031 269.247 146.929 269.206 146.764L267.786 140.881L165.934 165.411L167.351 171.29C167.392 171.455 167.29 171.621 167.124 171.661C167.1 171.667 167.077 171.669 167.053 171.669Z" fill="#25292B"></path>
    <path d="M275.466 196.244L215.573 211.265L205.542 171.354L265.432 156.334L275.466 196.244Z" fill="#FFB593"></path>
    <g filter="url(#filter0_d_1_7582)">
      <path d="M245.4 185.039C245.4 183.909 244.999 183.126 244.656 182.517C244.198 181.763 243.769 181.126 243.769 180.372C243.769 179.531 244.399 178.749 245.285 178.749C245.325 178.749 245.364 178.754 245.402 178.757C243.797 177.266 241.657 176.356 239.309 176.356C236.156 176.356 233.383 177.994 231.769 180.477C231.981 180.483 232.18 180.488 232.35 180.488C233.294 180.488 234.755 180.372 234.755 180.372C235.241 180.343 235.298 181.067 234.813 181.126C234.813 181.126 234.324 181.184 233.78 181.212L237.066 191.118L239.041 185.117L237.634 181.213C237.149 181.184 236.688 181.126 236.688 181.126C236.202 181.097 236.259 180.344 236.745 180.373C236.745 180.373 238.235 180.489 239.122 180.489C240.065 180.489 241.527 180.373 241.527 180.373C242.014 180.344 242.07 181.068 241.584 181.126C241.584 181.126 241.094 181.184 240.552 181.213L243.813 191.043L244.713 187.996C245.103 186.73 245.4 185.822 245.4 185.039Z" fill="#FF6B26"></path>
      <path d="M230.289 185.501C230.289 189.122 232.365 192.249 235.375 193.731L231.07 181.781C230.569 182.917 230.289 184.176 230.289 185.501Z" fill="#FF6B26"></path>
      <path d="M239.468 186.303L236.76 194.274C237.568 194.516 238.423 194.647 239.309 194.647C240.36 194.647 241.368 194.462 242.306 194.129C242.281 194.089 242.26 194.048 242.241 194.002L239.468 186.303Z" fill="#FF6B26"></path>
      <path d="M243.848 193.402C246.531 191.816 248.335 188.87 248.335 185.498C248.335 183.908 247.935 182.413 247.23 181.111C247.269 181.402 247.291 181.715 247.291 182.051C247.291 182.979 247.12 184.021 246.604 185.325L243.848 193.402Z" fill="#FF6B26"></path>
      <path d="M239.309 171C231.406 171 225 177.491 225 185.5C225 193.508 231.406 200 239.309 200C247.212 200 253.618 193.508 253.618 185.5C253.618 177.491 247.212 171 239.309 171ZM239.31 195.671C233.776 195.671 229.273 191.108 229.273 185.499C229.273 179.891 233.775 175.329 239.31 175.329C244.843 175.329 249.345 179.891 249.345 185.499C249.345 191.108 244.843 195.671 239.31 195.671Z" fill="#FF6B26"></path>
    </g>
    <path d="M187.438 224.142L188.302 227.58L277.407 205.232L276.544 201.796L187.438 224.142ZM188.079 228.26C187.941 228.26 187.817 228.166 187.78 228.027L186.767 223.994C186.748 223.915 186.76 223.831 186.801 223.762C186.843 223.692 186.911 223.64 186.99 223.621L276.691 201.125C276.856 201.083 277.023 201.184 277.065 201.348L278.078 205.381C278.097 205.46 278.086 205.544 278.044 205.614C278.003 205.683 277.934 205.734 277.855 205.753L188.154 228.25C188.129 228.257 188.104 228.26 188.079 228.26Z" fill="#25292B"></path>
    <path d="M203.595 188.568L180.659 194.319L176.764 178.826L199.7 173.073L203.595 188.568Z" fill="#FFB593"></path>
    <path d="M209.675 212.758L186.74 218.51L182.845 203.016L205.78 197.263L209.675 212.758Z" fill="#FFB593"></path>
    <path d="M275.986 156.219H198.187C198.017 156.219 197.88 156.081 197.88 155.911C197.88 155.742 198.017 155.604 198.187 155.604H275.986C276.156 155.604 276.292 155.742 276.292 155.911C276.292 156.081 276.156 156.219 275.986 156.219Z" fill="#25292B"></path>
    <path d="M263.312 188.082L267.991 200.203L269.942 197.024L272.644 200.605L275.867 197.511L272.796 194.525L275.63 192.591L263.312 188.082Z" fill="#FF6B26"></path>
    <path d="M261.551 189.871C261.577 189.911 260.813 190.445 259.846 191.064C258.879 191.683 258.074 192.152 258.049 192.112C258.024 192.071 258.787 191.537 259.754 190.918C260.721 190.3 261.526 189.83 261.551 189.871Z" fill="#FF6B26"></path>
    <path d="M261.914 187.433C261.906 187.454 261.618 187.38 261.162 187.232C260.706 187.085 260.081 186.861 259.403 186.583C258.724 186.306 258.121 186.033 257.687 185.827C257.253 185.621 256.991 185.481 257 185.46C257.01 185.437 257.29 185.537 257.735 185.714C258.239 185.92 258.823 186.159 259.467 186.422C260.113 186.681 260.698 186.915 261.203 187.117C261.648 187.294 261.922 187.41 261.914 187.433Z" fill="#FF6B26"></path>
    <path d="M263.326 181.928C263.349 181.924 263.415 182.179 263.496 182.597C263.577 183.014 263.672 183.594 263.752 184.238C263.831 184.882 263.882 185.468 263.906 185.893C263.928 186.317 263.926 186.581 263.904 186.583C263.855 186.586 263.742 185.543 263.581 184.259C263.423 182.976 263.278 181.936 263.326 181.928Z" fill="#FF6B26"></path>
    <path d="M269.802 184.639C269.822 184.688 268.955 185.064 267.98 185.695C267.004 186.325 266.232 186.877 266.201 186.833C266.187 186.814 266.365 186.656 266.666 186.417C266.968 186.181 267.393 185.863 267.889 185.548C268.879 184.908 269.789 184.598 269.802 184.639Z" fill="#FF6B26"></path>
    <line x1="15" y1="219.5" x2="315" y2="219.5" stroke="#25292B"></line>
  </g>
  <defs>
    <filter id="filter0_d_1_7582" x="205" y="151" width="68.6184" height="69" color-interpolation-filters="sRGB">
      <feFlood flood-opacity="0" result="BackgroundImageFix"></feFlood>
      <feColorMatrix in="SourceAlpha" type="matrix" values="0 0 0 0 0 0 0 0 0 0 0 0 0 0 0 0 0 0 127 0" result="hardAlpha"></feColorMatrix>
      <feOffset></feOffset>
      <feGaussianBlur stdDeviation="10"></feGaussianBlur>
      <feComposite in2="hardAlpha" operator="out"></feComposite>
      <feColorMatrix type="matrix" values="0 0 0 0 1 0 0 0 0 1 0 0 0 0 1 0 0 0 0.24 0"></feColorMatrix>
      <feBlend mode="normal" in2="BackgroundImageFix" result="effect1_dropShadow_1_7582"></feBlend>
      <feBlend mode="normal" in="SourceGraphic" in2="effect1_dropShadow_1_7582" result="shape"></feBlend>
    </filter>
    <clipPath id="clip0_1_7582">
      <rect width="330" height="220" fill="white"></rect>
    </clipPath>
  </defs>
</svg>
