<svg xmlns="http://www.w3.org/2000/svg" width="397.09" height="370.623" viewBox="0 0 397.09 370.623">
  <g id="download_1_" data-name="download (1)" transform="translate(-154.01 -168.809)">
    <path id="Path_93" data-name="Path 93" d="M154.01,168.81V460.016H332.7v39.709l-19.855,0a33.132,33.132,0,0,0-33.089,33.093v6.617h145.6v-6.617a33.138,33.138,0,0,0-33.093-33.093H372.409V460.016H551.1V168.809ZM392.268,512.965A19.891,19.891,0,0,1,410.991,526.2H294.129a19.9,19.9,0,0,1,18.722-13.238Zm-33.093-13.238H345.941V460.02h13.238Zm178.691-52.947-370.62,0V182.05h370.62Z" fill="#666"/>
    <path id="Path_94" data-name="Path 94" d="M527.755,198.41H183.6V436.668H527.755ZM196.846,423.431V211.647H485.307L470.13,226.824l9.36,9.36,24.533-24.537h10.495v10.495l-37.77,37.77,9.36,9.36,28.411-28.411V423.434Z" transform="translate(-3.125 -3.126)" fill="#666"/>
    <path id="Path_95" data-name="Path 95" d="M451.1,257.61H279.029a6.618,6.618,0,0,0-6.617,6.621V396.592a6.62,6.62,0,0,0,6.617,6.617H451.1a6.62,6.62,0,0,0,6.617-6.617V264.231a6.62,6.62,0,0,0-6.617-6.621Zm-6.617,13.238V300.24l-79.423,48.874-79.42-48.874V270.848ZM285.64,389.982V315.789l75.95,46.739h0a6.61,6.61,0,0,0,6.935,0l75.95-46.739v74.193Z" transform="translate(-12.504 -9.378)" fill="#fba428"/>
  </g>
</svg>
