<svg fill="#4ea3fb" xmlns="http://www.w3.org/2000/svg" id="server_1822364" width="24.022" height="24.022" viewBox="0 0 24.022 24.022">
  <path id="Path_68177" data-name="Path 68177" d="M0,7.038H1.408V8.492H0V15.53H1.408v1.454H0v7.038H24.022V16.984H22.614V15.53h1.408V8.492H22.614V7.038h1.408V0H0ZM22.614,22.614H1.408V18.392H22.614Zm-1.408-5.63H2.815V15.53H21.207Zm1.408-2.862H1.408V9.9H22.614Zm-1.408-5.63H2.815V7.038H21.207ZM1.408,1.408H22.614V5.63H1.408Zm0,0"></path>
  <path id="Path_68178" data-name="Path 68178" d="M422,241h1.408v1.408H422Zm0,0" transform="translate(-402.201 -229.693)"></path>
  <path id="Path_68179" data-name="Path 68179" d="M362,241h1.408v1.408H362Zm0,0" transform="translate(-345.016 -229.693)"></path>
  <path id="Path_68180" data-name="Path 68180" d="M60,241h1.408v1.408H60Zm0,0" transform="translate(-57.185 -229.693)"></path>
  <path id="Path_68181" data-name="Path 68181" d="M120,241h1.408v1.408H120Zm0,0" transform="translate(-114.37 -229.693)"></path>
  <path id="Path_68182" data-name="Path 68182" d="M120,422h1.408v1.408H120Zm0,0" transform="translate(-114.37 -402.201)"></path>
  <path id="Path_68183" data-name="Path 68183" d="M60,422h1.408v1.408H60Zm0,0" transform="translate(-57.185 -402.201)"></path>
  <path id="Path_68184" data-name="Path 68184" d="M362,422h1.408v1.408H362Zm0,0" transform="translate(-345.016 -402.201)"></path>
  <path id="Path_68185" data-name="Path 68185" d="M422,422h1.408v1.408H422Zm0,0" transform="translate(-402.201 -402.201)"></path>
  <path id="Path_68186" data-name="Path 68186" d="M422,60h1.408v1.408H422Zm0,0" transform="translate(-402.201 -57.185)"></path>
  <path id="Path_68187" data-name="Path 68187" d="M362,60h1.408v1.408H362Zm0,0" transform="translate(-345.016 -57.185)"></path>
  <path id="Path_68188" data-name="Path 68188" d="M120,60h1.408v1.408H120Zm0,0" transform="translate(-114.37 -57.185)"></path>
  <path id="Path_68189" data-name="Path 68189" d="M60,60h1.408v1.408H60Zm0,0" transform="translate(-57.185 -57.185)"></path>
  <path id="Path_68190" data-name="Path 68190" d="M180,60h7.132v1.408H180Zm0,0" transform="translate(-171.555 -57.185)"></path>
  <path id="Path_68191" data-name="Path 68191" d="M180,241h7.132v1.408H180Zm0,0" transform="translate(-171.555 -229.693)"></path>
  <path id="Path_68192" data-name="Path 68192" d="M180,422h7.132v1.408H180Zm0,0" transform="translate(-171.555 -402.201)"></path>
</svg>