<?xml version="1.0" encoding="UTF-8"?>
<svg xmlns="http://www.w3.org/2000/svg" width="500" height="auto" viewBox="0 0 330 220" fill="none">
  <g clip-path="url(#clip0_1_7209)">
    <path d="M304.488 36.1312V41.4999H114.257V36.1312C114.257 32.2602 117.4 29.1185 121.27 29.1185H297.475C301.346 29.1179 304.488 32.2602 304.488 36.1312Z" fill="#25292B"></path>
    <path d="M293.439 36.564H279.134C278.524 36.564 278.024 36.0644 278.024 35.4539V34.4663C278.024 33.8558 278.524 33.3561 279.134 33.3561H293.439C294.05 33.3561 294.549 33.8558 294.549 34.4663V35.4539C294.55 36.0644 294.05 36.564 293.439 36.564Z" fill="white"></path>
    <path d="M271.534 36.7967H257.228C256.618 36.7967 256.118 36.2971 256.118 35.6866V34.699C256.118 34.0885 256.618 33.5888 257.228 33.5888H271.534C272.144 33.5888 272.644 34.0885 272.644 34.699V35.6866C272.644 36.2971 272.145 36.7967 271.534 36.7967Z" fill="#1E2F37"></path>
    <path d="M249.589 36.7967H235.284C234.673 36.7967 234.173 36.2971 234.173 35.6866V34.699C234.173 34.0885 234.673 33.5888 235.284 33.5888H249.589C250.199 33.5888 250.699 34.0885 250.699 34.699V35.6866C250.7 36.2971 250.2 36.7967 249.589 36.7967Z" fill="#FF6B26"></path>
    <path d="M297.268 168.194H121.489C117.169 168.194 113.655 164.679 113.655 160.36V36.3577C113.655 32.0384 117.169 28.524 121.489 28.524H297.268C301.578 28.524 305.084 32.0384 305.084 36.3577V160.36C305.085 164.679 301.578 168.194 297.268 168.194ZM121.489 29.0027C117.433 29.0027 114.134 32.3022 114.134 36.3577V160.36C114.134 164.415 117.433 167.715 121.489 167.715H297.268C301.314 167.715 304.605 164.415 304.605 160.36V36.3577C304.605 32.3022 301.314 29.0027 297.268 29.0027H121.489Z" fill="#25292B"></path>
    <path d="M90.8528 98.1664L90.8511 98.1668C89.4895 98.5101 88.1332 98.7545 86.7929 98.918L86.7913 98.9182C78.3556 99.9736 71.0807 97.8528 66.0034 95.863L66.0019 95.8625C64.6153 95.3242 63.4336 94.7918 62.5043 94.3415L62.5013 94.3401L62.4573 94.3191C62.2252 94.2085 62.0221 94.1118 61.8348 94.0155L61.8325 94.0144C61.5954 93.894 61.3805 93.7813 61.188 93.68C61.1934 93.6506 61.1988 93.6214 61.2045 93.5922C61.4812 92.1785 61.7639 90.8495 62.0573 89.6036C62.4512 87.9393 62.8566 86.4246 63.2784 85.0477L63.554 84.1484L62.6544 84.423C61.9272 84.645 61.1782 84.7558 60.4359 84.7558C57.4769 84.7558 54.5666 83.0255 53.4037 79.8693C52.9932 78.7536 52.8497 77.5689 52.9935 76.3964L52.9936 76.3953L55.2515 57.6628L55.2515 57.6627L56.292 49.0499L56.292 49.0496L56.8655 44.2735L56.8655 44.2733C57.2535 41.0327 59.7017 38.4237 62.9093 37.8306L62.9096 37.8306L73.7746 35.8149L73.775 35.8148L77.7253 35.0786L92.6819 35.0844L92.6827 35.0844L97.1383 35.0791L101.748 93.2492C101.349 93.5222 100.949 93.784 100.548 94.0381C97.339 96.0532 94.0668 97.3686 90.8528 98.1664Z" fill="white" stroke="#1E2F37"></path>
    <path d="M62.7984 85.1679C62.7231 85.1679 62.6484 85.1361 62.5959 85.0741C62.5016 84.9628 62.5153 84.7953 62.6267 84.7009C62.6632 84.6697 66.2743 81.5271 65.5354 75.6142C65.5174 75.469 65.6202 75.3364 65.7655 75.3184C65.9128 75.3004 66.0427 75.4032 66.0612 75.5485C66.8372 81.7577 63.127 84.9712 62.969 85.1053C62.9192 85.1472 62.8588 85.1679 62.7984 85.1679Z" fill="#25292B"></path>
    <path d="M33.4072 176.478L45.2623 188.818L45.8904 194.842C45.8904 194.842 55.4043 204.237 49.2629 211.021L25 185.765L33.4072 176.478Z" fill="#1E2F37"></path>
    <path d="M38.7974 172.925L46.6979 184.974L43.9158 187.419L34.5254 177.644L38.7974 172.925Z" fill="white"></path>
    <path d="M82.9788 206.793H99.5007L103.864 210.646C103.864 210.646 116.793 210.282 116.793 219.737H82.9788V206.793Z" fill="#1E2F37"></path>
    <path d="M84.5305 200.219L98.0255 202.963L97.6179 206.796H84.5305V200.219Z" fill="white"></path>
    <path d="M86.8474 99.4062C86.8474 99.4613 86.8426 99.526 86.8426 99.5959C86.8379 99.6611 86.8379 99.7258 86.8379 99.7857C86.8379 99.8159 86.8379 99.8456 86.8331 99.8758C86.8283 99.906 86.8283 99.9309 86.8283 99.9558C86.8283 99.986 86.8236 100.016 86.8236 100.041C86.4589 106.133 85.8038 114.415 84.6595 122.712C84.4644 124.111 84.2598 125.511 84.0399 126.895C84.0351 126.93 84.0298 126.961 84.025 126.996C82.8256 134.508 81.191 141.725 78.9718 147.003C71.8944 163.861 49.4579 184.289 46.9238 186.568L37.2477 173.248C45.4096 165.921 56.0254 146.963 59.8792 137.786C59.8792 137.786 58.7498 103.979 60.6287 93.9427C61.0336 94.1626 61.5933 94.4526 62.2829 94.7875C63.2226 95.2423 64.4173 95.7771 65.8166 96.322C70.9281 98.3265 78.2955 100.476 86.8474 99.4062Z" fill="#25292B"></path>
    <path d="M100.384 203.441L82.9807 199.903C88.5237 168.544 84.8798 144.683 84.0254 126.995C84.0302 126.96 84.0355 126.93 84.0403 126.895C84.2602 125.51 84.4653 124.111 84.6599 122.711C85.8042 114.414 86.4593 106.133 86.824 100.04C86.824 100.015 86.8287 99.9849 86.8287 99.9553C86.8287 99.9303 86.8287 99.9054 86.8335 99.8752C86.8383 99.845 86.8383 99.8153 86.8383 99.7851C86.843 99.7199 86.8483 99.66 86.8531 99.5954C86.8483 99.5954 86.8483 99.5954 86.843 99.5954C86.843 99.5254 86.8478 99.4602 86.8478 99.4056C88.2073 99.2408 89.587 98.9906 90.9714 98.6461C94.725 97.7164 98.5486 96.0871 102.267 93.4932C102.407 94.143 102.477 94.5177 102.482 94.5177C103.397 98.4961 104.211 103.185 104.706 108.488V108.498C106.557 129.448 107.441 163.521 100.384 203.441Z" fill="#25292B"></path>
    <path d="M48.7248 208.909C48.6548 208.909 48.5843 208.881 48.5324 208.827L26.0323 185.095C25.9316 184.989 25.9359 184.821 26.0424 184.721C26.1484 184.621 26.317 184.625 26.4171 184.731L48.9172 208.463C49.0179 208.569 49.0137 208.737 48.9071 208.837C48.8563 208.885 48.7905 208.909 48.7248 208.909Z" fill="#25292B"></path>
    <path d="M84.1194 218.687C83.9736 218.687 83.8549 218.569 83.8543 218.423C83.8538 218.277 83.972 218.158 84.1183 218.157L115.983 218.038H115.984C116.13 218.038 116.249 218.156 116.249 218.302C116.25 218.448 116.132 218.568 115.985 218.568L84.1204 218.687H84.1194Z" fill="#25292B"></path>
    <path d="M94.9156 212.262C94.2865 212.262 93.6584 212.228 93.0351 212.162C91.8595 212.038 91.1413 211.57 91.0131 210.845C90.8472 209.907 91.7657 209.237 92.6031 208.949C95.17 208.065 98.1403 208.602 100.265 210.273C100.864 208.354 101.913 206.589 103.317 205.147C103.763 204.689 104.315 204.202 105.023 204.066C105.75 203.927 106.652 204.299 106.837 205.077C107.013 205.816 106.491 206.465 106.017 206.949C104.454 208.541 102.733 209.997 100.902 211.274C100.833 211.322 100.747 211.334 100.671 211.309C100.648 211.326 100.622 211.341 100.593 211.35C98.7731 211.953 96.8401 212.262 94.9156 212.262ZM95.1674 209.056C94.357 209.056 93.5471 209.184 92.7759 209.45C92.2607 209.627 91.4196 210.101 91.5346 210.753C91.6517 211.413 92.6614 211.59 93.0908 211.635C95.4594 211.887 97.905 211.643 100.179 210.927C100.164 210.905 100.152 210.883 100.144 210.858C98.7684 209.69 96.9674 209.056 95.1674 209.056ZM100.706 210.647C100.73 210.669 100.754 210.691 100.778 210.714C102.515 209.486 104.15 208.096 105.639 206.577C106.018 206.191 106.438 205.685 106.322 205.2C106.209 204.724 105.601 204.494 105.123 204.586C104.559 204.694 104.086 205.117 103.697 205.517C102.299 206.954 101.267 208.724 100.706 210.647Z" fill="#25292B"></path>
    <path d="M51.4098 193.757C50.6037 193.757 49.7535 193.664 48.8636 193.479C47.3032 193.154 45.7916 192.588 44.3292 192.038C44.2635 192.035 44.1983 192.008 44.1495 191.956C44.131 191.937 44.1162 191.915 44.1045 191.892C42.5987 191.113 41.0441 190.306 39.7482 189.139C38.2647 187.803 37.3848 186.176 37.2709 184.556C37.2327 184.023 37.29 183.583 37.4453 183.21C37.6493 182.721 38.0394 182.352 38.4889 182.225C39.1382 182.043 39.8701 182.335 40.6047 183.073C42.8229 185.303 43.7828 188.539 44.5179 191.251C46.1658 189.757 47.6668 188.885 49.2129 188.52C51.3695 188.008 53.6126 188.663 54.7972 190.146C55.2848 190.757 55.6802 191.754 55.1889 192.554C54.8407 193.121 54.175 193.352 53.7048 193.475C52.9893 193.662 52.2224 193.757 51.4098 193.757ZM44.8471 191.667C46.187 192.169 47.5671 192.668 48.9722 192.96C50.6789 193.315 52.2255 193.315 53.5697 192.962C54.1771 192.802 54.5476 192.583 54.7368 192.275C55.0622 191.746 54.7935 190.989 54.3833 190.475C53.16 188.944 50.9667 188.649 49.3353 189.034C47.8709 189.38 46.4366 190.22 44.8471 191.667ZM38.8763 182.701C38.7947 182.701 38.7136 182.712 38.6331 182.735C38.3384 182.818 38.0771 183.072 37.9345 183.414C37.812 183.709 37.7675 184.07 37.7993 184.518C37.9043 186.001 38.7221 187.502 40.1028 188.745C41.2397 189.768 42.6082 190.517 43.9603 191.22C43.2204 188.503 42.313 185.541 40.2284 183.446C39.8749 183.09 39.374 182.701 38.8763 182.701Z" fill="#25292B"></path>
    <path d="M84.0294 127.266C84.0108 127.266 83.9928 127.264 83.9743 127.26C83.8312 127.229 83.74 127.089 83.7702 126.946C83.8036 126.788 87.1343 111.087 88.3162 102.992C88.3327 102.88 88.418 102.791 88.5288 102.77L95.8389 101.38C95.9825 101.354 96.1219 101.447 96.1484 101.591C96.176 101.734 96.0816 101.873 95.9375 101.9L88.8129 103.255C87.6055 111.419 84.3214 126.898 84.2886 127.055C84.2621 127.18 84.1518 127.266 84.0294 127.266Z" fill="white"></path>
    <path d="M41.5518 175.958C41.4924 175.958 41.4325 175.938 41.3833 175.898C41.2704 175.804 41.255 175.637 41.3483 175.524C41.5953 175.226 66.0543 145.612 67.5527 137.713C69.0595 129.767 69.9235 98.1546 69.932 97.8366C69.9362 97.6903 70.0724 97.5848 70.2039 97.5785C70.3502 97.5827 70.4657 97.7041 70.462 97.8504C70.4535 98.1694 69.588 129.824 68.0732 137.812C66.5493 145.845 42.7682 174.641 41.7564 175.863C41.7039 175.926 41.6281 175.958 41.5518 175.958Z" fill="white"></path>
    <path d="M89.1388 23.0784C88.4428 24.9096 86.796 26.2347 84.9134 26.6746C83.5475 26.9968 82.0794 26.7668 80.8465 26.1117C79.3269 28.6134 76.662 30.3577 73.6133 30.4701C71.5568 30.5416 69.4081 29.9379 67.8991 28.4904C66.7786 27.4108 66.0625 25.9479 65.9549 24.4183C65.0083 24.1469 64.1237 23.6715 63.3769 22.9655C61.7704 21.4565 61.0082 19.2977 61.0697 17.1135C61.1773 13.2204 64.006 9.91574 67.6537 8.83661C67.4544 7.38911 67.5768 5.91034 68.119 4.52433C69.398 1.22969 73.0711 -0.437765 76.4574 0.0991498C79.7722 0.631294 82.3915 3.18389 83.6806 6.18648C85.4964 6.57552 87.1029 7.84387 87.7782 9.69578C88.4587 11.5578 88.0644 13.5634 86.9238 15.0416C87.7013 15.7423 88.3559 16.566 88.8419 17.5226C89.7064 19.2314 89.814 21.2879 89.1388 23.0784Z" fill="#25292B"></path>
    <path d="M73.3824 15.5011C73.3824 22.0676 78.7054 27.3901 85.2714 27.3901C91.8373 27.3901 99.0843 17.9519 99.0843 11.386C99.0843 4.82004 91.8373 3.61159 85.2714 3.61159C78.7054 3.61159 73.3824 8.93515 73.3824 15.5011Z" fill="#25292B"></path>
    <path d="M73.5116 21.3122C74.2091 23.5081 75.681 24.8172 77.7311 24.4208L77.4502 34.5792L79.636 36.4147C83.1278 39.3478 88.4121 38.4781 90.7798 34.5829L90.1183 30.9883L91.7322 29.6956C94.4274 27.5331 95.9947 24.2724 95.9947 20.8166V15.2778C90.7103 16.5775 87.1358 15.139 85.0359 13.6544C83.4453 12.5334 82.7011 11.3859 82.7011 11.3859L81.7752 13.003L79.5793 16.8388V16.8653L79.5692 16.8552C78.8516 16.1508 77.9325 15.7109 76.97 15.625C76.4707 15.5789 75.9613 15.6314 75.4621 15.7904C73.2868 16.481 72.7642 18.961 73.5116 21.3122Z" fill="white"></path>
    <path d="M93.8256 20.5575C94.4457 20.5575 94.9483 20.0015 94.9483 19.3155C94.9483 18.6296 94.4457 18.0735 93.8256 18.0735C93.2055 18.0735 92.7028 18.6296 92.7028 19.3155C92.7028 20.0015 93.2055 20.5575 93.8256 20.5575Z" fill="#25292B"></path>
    <path d="M86.9972 20.5575C87.6173 20.5575 88.12 20.0015 88.12 19.3155C88.12 18.6296 87.6173 18.0735 86.9972 18.0735C86.3771 18.0735 85.8744 18.6296 85.8744 19.3155C85.8744 20.0015 86.3771 20.5575 86.9972 20.5575Z" fill="#25292B"></path>
    <path d="M92.8919 16.4078C93.745 16.1366 94.7051 16.2881 95.3992 16.8694C95.5375 16.9849 95.5963 17.1979 95.4755 17.3505C95.3658 17.4882 95.1417 17.5502 94.9944 17.4268C94.926 17.3695 94.8556 17.316 94.7808 17.2673C94.7443 17.2434 94.7072 17.2207 94.6696 17.1989C94.6653 17.1968 94.6611 17.1942 94.6569 17.192C94.6373 17.182 94.6171 17.1719 94.597 17.1624C94.517 17.1242 94.4343 17.0903 94.3501 17.0617C94.3082 17.0474 94.2653 17.0347 94.2229 17.022C94.2155 17.0198 94.2081 17.0177 94.2022 17.0161C94.1784 17.0108 94.1551 17.0055 94.1312 17.0008C94.0438 16.9838 93.9559 16.9711 93.8674 16.9642C93.8229 16.9605 93.7789 16.9584 93.7344 16.9573C93.7121 16.9568 93.6899 16.9568 93.6676 16.9568C93.6665 16.9568 93.6671 16.9568 93.666 16.9568C93.6634 16.9568 93.665 16.9568 93.6597 16.9573C93.5706 16.9626 93.4827 16.9711 93.3947 16.9859C93.3508 16.9933 93.3073 17.0024 93.2644 17.0124C93.2427 17.0177 93.2215 17.023 93.1997 17.0283C93.1939 17.0299 93.1913 17.0304 93.1886 17.031C93.1844 17.0326 93.1817 17.0331 93.1764 17.0347C93.0053 17.0892 92.7949 17.05 92.7202 16.8635C92.6582 16.7077 92.7086 16.4661 92.8919 16.4078Z" fill="#25292B"></path>
    <path d="M88.0973 16.8636C88.0226 17.0501 87.8122 17.0894 87.6411 17.0348C87.6353 17.0332 87.6332 17.0321 87.6289 17.0311C87.6263 17.0305 87.6236 17.03 87.6178 17.0284C87.5961 17.0231 87.5749 17.0173 87.5531 17.0125C87.5097 17.0025 87.4662 16.9935 87.4228 16.986C87.3348 16.9712 87.2469 16.9627 87.1579 16.9574C87.1526 16.9569 87.1542 16.9569 87.1515 16.9569C87.1504 16.9569 87.1515 16.9569 87.1499 16.9569C87.1277 16.9569 87.1054 16.9569 87.0832 16.9574C87.0386 16.9585 86.9941 16.9606 86.9502 16.9643C86.8617 16.9717 86.7732 16.9839 86.6863 17.0009C86.6624 17.0056 86.6386 17.0104 86.6153 17.0162C86.6095 17.0178 86.6026 17.0199 86.5946 17.0221C86.5517 17.0343 86.5093 17.047 86.4675 17.0618C86.3832 17.0904 86.3011 17.1243 86.2205 17.1625C86.2004 17.172 86.1808 17.1821 86.1607 17.1922C86.1564 17.1943 86.1517 17.1969 86.1479 17.199C86.1103 17.2208 86.0732 17.2435 86.0367 17.2674C85.9625 17.3161 85.8915 17.3697 85.8231 17.4269C85.6758 17.5503 85.4512 17.4883 85.342 17.3506C85.2207 17.198 85.28 16.985 85.4183 16.8695C86.113 16.2877 87.0726 16.1367 87.9256 16.408C88.1095 16.4657 88.1598 16.7073 88.0973 16.8636Z" fill="#25292B"></path>
    <path d="M87.7414 32.1315C86.0702 32.1315 83.3496 29.6743 83.0348 29.3844L83.3936 28.9943C84.2316 29.7649 86.6607 31.7292 87.8596 31.5951C89.3156 31.4245 90.1323 30.6347 90.1408 30.6268L90.5145 31.0031C90.4763 31.0407 89.5684 31.928 87.9216 32.1214C87.8622 32.1283 87.8023 32.1315 87.7414 32.1315Z" fill="#25292B"></path>
    <path d="M93.0557 24.805L90.254 24.1149L90.3807 23.6002L92.3052 24.0741C91.8786 22.4708 91.5446 20.8277 91.3114 19.1841L91.8362 19.1093C92.0874 20.8796 92.4568 22.6488 92.9338 24.3677L93.0557 24.805Z" fill="#25292B"></path>
    <path d="M88.6579 25.9178C87.533 25.6847 86.5188 24.8989 86.0112 23.8673L86.4865 23.6336C86.9231 24.5216 87.7963 25.1983 88.7649 25.3991L88.6579 25.9178Z" fill="#25292B"></path>
    <path d="M76.3414 23.5011C75.8013 22.9716 75.6073 22.1369 75.858 21.424C76.0812 20.789 76.6403 20.2998 77.2907 20.1471C77.2764 19.6897 77.244 19.2276 77.0834 18.811C76.9324 18.4209 76.5963 17.9735 76.1055 17.8898C75.7833 17.8368 75.4356 17.9592 75.222 18.2067C75.0079 18.4548 74.9358 18.8163 75.0375 19.1274L74.534 19.2927C74.3755 18.8088 74.4879 18.2465 74.8202 17.8606C75.1526 17.4753 75.6921 17.2797 76.1946 17.3672C76.7882 17.4684 77.3182 17.9486 77.5774 18.6201C77.7979 19.192 77.8127 19.8143 77.826 20.3634L77.8318 20.6093L77.587 20.6337C77.0442 20.6878 76.538 21.0848 76.3573 21.5994C76.176 22.1141 76.3218 22.74 76.7113 23.1222L76.3414 23.5011Z" fill="#25292B"></path>
    <path d="M95.9956 30.4728L60.9599 43.9741V63.091C60.9599 79.4709 69.9984 94.9762 85.137 104.559L95.9961 111.439L106.855 104.559C122 94.9704 131.032 79.4714 131.032 63.091V43.9741L95.9956 30.4728ZM128.088 63.091C128.088 78.5073 119.546 93.1259 105.234 102.188L96.0957 107.981C96.0661 107.998 96.0306 108.005 95.995 108.005C95.9654 108.005 95.9298 107.999 95.9007 107.981L86.7562 102.188C72.445 93.1259 63.9031 78.5132 63.9031 63.091V46.0195C63.9031 45.9485 63.9503 45.8774 64.0213 45.8541L95.9362 33.5586C95.9717 33.5411 96.0189 33.5411 96.0602 33.5586L127.975 45.8541C128.04 45.878 128.088 45.9485 128.088 46.0195V63.091Z" fill="#FF6B26"></path>
    <path d="M127.978 45.8546L96.0631 33.559C96.0217 33.5416 95.9745 33.5416 95.939 33.559L64.0241 45.8546C63.9531 45.8784 63.9059 45.9489 63.9059 46.0199V63.0915C63.9059 78.5141 72.4478 93.1264 86.759 102.188L95.9035 107.981C95.9332 107.999 95.9687 108.005 95.9979 108.005C96.0334 108.005 96.0689 107.999 96.0986 107.981L105.237 102.188C119.548 93.1264 128.09 78.5078 128.09 63.0915V46.0199C128.09 45.9494 128.043 45.8784 127.978 45.8546Z" fill="white"></path>
    <path d="M87.2705 61.9896C87.2705 63.023 87.0083 63.9399 86.4843 64.7411C85.9599 65.5428 85.2042 66.1653 84.2168 66.6102C83.2289 67.0547 82.0704 67.2769 80.7413 67.2769C79.6322 67.2769 78.7016 67.1987 77.9497 67.0435C77.1975 66.8879 76.4151 66.6162 75.6022 66.2289V62.2178C76.4607 62.6584 77.3531 63.0023 78.2799 63.2486C79.2067 63.4958 80.0574 63.6192 80.8324 63.6192C81.5009 63.6192 81.9909 63.5035 82.3021 63.2718C82.6138 63.0401 82.7694 62.7422 82.7694 62.3773C82.7694 62.1495 82.7066 61.95 82.5815 61.7789C82.4565 61.6083 82.2548 61.4354 81.9776 61.2605C81.6999 61.086 80.9614 60.7292 79.7612 60.1897C78.6749 59.6958 77.8599 59.2173 77.317 58.7539C76.7736 58.2905 76.3713 57.7588 76.109 57.1587C75.8468 56.5586 75.7157 55.8485 75.7157 55.0278C75.7157 53.4932 76.2741 52.2969 77.3909 51.4385C78.5077 50.58 80.0419 50.151 81.9943 50.151C83.719 50.151 85.4776 50.5499 87.2701 51.3473L85.8915 54.8228C84.3341 54.1088 82.9895 53.7516 81.8576 53.7516C81.2726 53.7516 80.847 53.8539 80.5814 54.0594C80.3153 54.2644 80.1825 54.5189 80.1825 54.8228C80.1825 55.1495 80.3514 55.4422 80.6893 55.7002C81.0271 55.9585 81.9445 56.4296 83.4413 57.1131C84.877 57.7592 85.8739 58.4522 86.4323 59.1928C86.9916 59.9326 87.2705 60.865 87.2705 61.9896Z" fill="#FF6B26"></path>
    <path d="M100.738 61.9896C100.738 63.023 100.476 63.9399 99.9515 64.7411C99.4271 65.5428 98.6714 66.1653 97.684 66.6102C96.6961 67.0547 95.5376 67.2769 94.2085 67.2769C93.0994 67.2769 92.1688 67.1987 91.4169 67.0435C90.6647 66.8879 89.8823 66.6162 89.0694 66.2289V62.2178C89.9279 62.6584 90.8203 63.0023 91.7471 63.2486C92.6739 63.4958 93.5246 63.6192 94.2996 63.6192C94.9681 63.6192 95.4581 63.5035 95.7693 63.2718C96.081 63.0401 96.2366 62.7422 96.2366 62.3773C96.2366 62.1495 96.1738 61.95 96.0488 61.7789C95.9237 61.6083 95.7221 61.4354 95.4448 61.2605C95.1671 61.086 94.4286 60.7292 93.2284 60.1897C92.1421 59.6958 91.3271 59.2173 90.7842 58.7539C90.2408 58.2905 89.8385 57.7588 89.5762 57.1587C89.314 56.5586 89.1829 55.8485 89.1829 55.0278C89.1829 53.4932 89.7413 52.2969 90.8581 51.4385C91.9749 50.58 93.5091 50.151 95.4616 50.151C97.1862 50.151 98.9448 50.5499 100.737 51.3473L99.3587 54.8228C97.8013 54.1088 96.4567 53.7516 95.3249 53.7516C94.7398 53.7516 94.3142 53.8539 94.0486 54.0594C93.7825 54.2644 93.6497 54.5189 93.6497 54.8228C93.6497 55.1495 93.8186 55.4422 94.1565 55.7002C94.4944 55.9585 95.4117 56.4296 96.9085 57.1131C98.3442 57.7592 99.3411 58.4522 99.8995 59.1928C100.459 59.9326 100.738 60.865 100.738 61.9896Z" fill="#FF6B26"></path>
    <path d="M103.314 67.0466V50.3875H107.816V63.4116H114.231V67.0466H103.314Z" fill="#FF6B26"></path>
    <path d="M94.8353 90.8524L87.2285 83.2457L90.8629 79.6113L94.8353 83.5832L104.692 73.7265L108.326 77.3614L94.8353 90.8524Z" fill="#FF6B26"></path>
    <path d="M85.1297 104.825C85.0815 104.825 85.0322 104.812 84.9882 104.783C69.7722 95.1524 60.6882 79.567 60.6882 63.0922V43.9753C60.6882 43.8656 60.7555 43.7676 60.8578 43.7278L83.2979 35.0804C83.4342 35.0285 83.5879 35.0958 83.6403 35.2326C83.6928 35.3688 83.625 35.5225 83.4882 35.575L61.2177 44.1571V63.0922C61.2177 79.3841 70.2095 94.8026 85.2712 104.336C85.3947 104.413 85.4318 104.578 85.3534 104.701C85.303 104.781 85.2172 104.825 85.1297 104.825Z" fill="#25292B"></path>
    <path d="M60.2706 57.2805C60.7715 57.3923 61.1823 57.6981 61.4367 58.1031C61.6911 58.508 61.7955 59.0078 61.6837 59.5087L60.7238 63.7966C60.4996 64.7983 59.4973 65.4338 58.4956 65.2096C57.9973 65.0983 57.5866 64.7925 57.3322 64.3875C57.0751 63.9821 56.9733 63.4828 57.0852 62.9819L58.045 58.694C58.2692 57.6923 59.2715 57.0568 60.2706 57.2805Z" fill="#DFE3E8"></path>
    <path d="M64.3247 73.5512C64.3788 73.9832 64.2526 74.3993 64.0025 74.7183C63.7523 75.0374 63.3829 75.2643 62.9509 75.3189L59.2518 75.7821C58.3879 75.8902 57.5929 75.2722 57.4847 74.4083C57.4307 73.9784 57.5568 73.5629 57.8075 73.2433C58.0577 72.9216 58.4271 72.6974 58.8591 72.6433L62.5581 72.1801C63.4221 72.0714 64.2171 72.6894 64.3247 73.5512Z" fill="#DFE3E8"></path>
    <path d="M64.4887 70.2749C64.5523 70.7816 64.4034 71.2713 64.1087 71.6476C63.814 72.0266 63.3783 72.2911 62.8695 72.3552L58.5095 72.9017C57.4913 73.0294 56.5542 72.3006 56.427 71.2851C56.3634 70.7758 56.5123 70.2887 56.807 69.9097C57.1017 69.5334 57.5374 69.2689 58.0468 69.2048L62.4067 68.6583C63.4244 68.5311 64.361 69.2567 64.4887 70.2749Z" fill="#DFE3E8"></path>
    <path d="M64.0238 66.577C64.0874 67.0863 63.9385 67.5734 63.6438 67.9524C63.3491 68.3313 62.9134 68.5958 62.4046 68.66L58.0446 69.2064C57.0264 69.3341 56.0893 68.6054 55.9616 67.5872C55.898 67.0778 56.0469 66.5907 56.3416 66.2144C56.6363 65.8381 57.072 65.571 57.5808 65.5068L61.9408 64.9604C62.9595 64.8332 63.8966 65.5614 64.0238 66.577Z" fill="#DFE3E8"></path>
    <path d="M63.5058 62.8799C63.5694 63.3893 63.3886 63.8806 63.0415 64.2633C62.6943 64.6459 62.1876 64.9226 61.5993 64.9963L57.8621 65.4643C56.6859 65.6116 55.6195 64.8993 55.4923 63.8838C55.4287 63.3744 55.6095 62.8831 55.9566 62.4978C56.3033 62.1124 56.8105 61.8384 57.3988 61.7647L61.136 61.2967C62.3116 61.1494 63.378 61.8612 63.5058 62.8799Z" fill="#DFE3E8"></path>
    <path d="M57.5787 65.7684C57.4446 65.7684 57.3296 65.6672 57.3153 65.531C57.2999 65.3857 57.4054 65.2548 57.5511 65.24L61.9206 64.7847C62.0653 64.7688 62.1968 64.8748 62.2116 65.0205C62.227 65.1658 62.1215 65.2967 61.9758 65.3115L57.6062 65.7668C57.5972 65.7679 57.5882 65.7684 57.5787 65.7684Z" fill="#25292B"></path>
    <path d="M57.4028 62.0352C57.2687 62.0352 57.1537 61.9339 57.1394 61.7977C57.124 61.6525 57.2295 61.5216 57.3752 61.5067L61.1204 61.1166C61.2683 61.0997 61.3965 61.2067 61.4114 61.3525C61.4267 61.4977 61.3213 61.6286 61.1755 61.6435L57.4303 62.0336C57.4213 62.0346 57.4123 62.0352 57.4028 62.0352Z" fill="#25292B"></path>
    <path d="M58.0399 69.4712C57.9058 69.4712 57.7908 69.3699 57.7765 69.2337C57.7611 69.0885 57.8666 68.9576 58.0123 68.9427L62.9898 68.4238C63.1382 68.4069 63.2659 68.5139 63.2808 68.6597C63.2962 68.8049 63.1907 68.9358 63.0449 68.9507L58.0675 69.4696C58.0585 69.4706 58.0489 69.4712 58.0399 69.4712Z" fill="#25292B"></path>
    <path d="M57.7663 73.1538C57.6322 73.1538 57.5172 73.0525 57.5029 72.9163C57.4875 72.7711 57.593 72.6402 57.7387 72.6253L62.8386 72.0942C62.986 72.0762 63.1148 72.1844 63.1296 72.3301C63.145 72.4753 63.0395 72.6063 62.8938 72.6211L57.7939 73.1522C57.7849 73.1532 57.7758 73.1538 57.7663 73.1538Z" fill="#25292B"></path>
    <path d="M103.466 33.0039C103.428 33.5154 103.601 33.9977 103.914 34.3587C104.228 34.7201 104.675 34.965 105.187 35.0037L109.569 35.3329C110.593 35.4097 111.492 34.6353 111.569 33.6124C111.607 33.1036 111.434 32.6212 111.121 32.2603C110.808 31.8962 110.36 31.654 109.848 31.6153L105.466 31.2866C104.443 31.2093 103.543 31.9831 103.466 33.0039Z" fill="#DFE3E8"></path>
    <path d="M117.86 41.6121C118.257 41.7897 118.692 41.7897 119.07 41.6434C119.449 41.4971 119.773 41.2099 119.951 40.8118L121.47 37.4075C121.825 36.6124 121.465 35.6716 120.67 35.317C120.275 35.1406 119.84 35.1406 119.462 35.2868C119.081 35.4326 118.759 35.7209 118.581 36.1184L117.062 39.5228C116.707 40.3178 117.067 41.2581 117.86 41.6121Z" fill="#DFE3E8"></path>
    <path d="M114.678 40.8201C115.144 41.0284 115.656 41.0284 116.102 40.8556C116.55 40.6839 116.93 40.3442 117.139 39.8756L118.93 35.8633C119.348 34.9262 118.924 33.8174 117.989 33.4003C117.521 33.1909 117.011 33.192 116.562 33.3637C116.117 33.5365 115.737 33.8763 115.527 34.3448L113.736 38.3571C113.319 39.2947 113.741 40.4019 114.678 40.8201Z" fill="#DFE3E8"></path>
    <path d="M111.275 39.2947C111.743 39.504 112.253 39.503 112.702 39.3312C113.15 39.1595 113.53 38.8198 113.739 38.3512L115.53 34.3389C115.948 33.4019 115.524 32.293 114.586 31.8749C114.118 31.6655 113.608 31.6666 113.162 31.8393C112.716 32.0121 112.334 32.3508 112.125 32.8194L110.334 36.8316C109.915 37.7693 110.34 38.8775 111.275 39.2947Z" fill="#DFE3E8"></path>
    <path d="M107.888 37.7377C108.356 37.9471 108.879 37.9163 109.346 37.6958C109.814 37.4748 110.226 37.0704 110.467 36.5292L112.002 33.0899C112.485 32.0071 112.114 30.7801 111.179 30.3629C110.71 30.1536 110.187 30.1843 109.717 30.4038C109.248 30.6237 108.838 31.0292 108.597 31.5703L107.062 35.0097C106.579 36.0925 106.951 37.3195 107.888 37.7377Z" fill="#DFE3E8"></path>
    <path d="M110.413 37.1373C110.378 37.1373 110.343 37.1304 110.31 37.1167C110.175 37.0599 110.112 36.9041 110.169 36.7695L111.875 32.7217C111.932 32.5871 112.088 32.5245 112.222 32.5802C112.357 32.6369 112.421 32.7927 112.364 32.9273L110.657 36.9751C110.614 37.0764 110.516 37.1373 110.413 37.1373Z" fill="#25292B"></path>
    <path d="M107.136 35.3071C107.101 35.3071 107.066 35.3003 107.033 35.2865C106.898 35.2298 106.834 35.0739 106.891 34.9393L108.354 31.4692C108.411 31.3341 108.567 31.2715 108.701 31.3277C108.836 31.3844 108.899 31.5403 108.843 31.6749L107.38 35.145C107.337 35.2462 107.239 35.3071 107.136 35.3071Z" fill="#25292B"></path>
    <path d="M113.581 39.2237C113.546 39.2237 113.511 39.2168 113.478 39.203C113.343 39.1463 113.28 38.9905 113.337 38.8558L115.281 34.2441C115.337 34.1095 115.493 34.0469 115.628 34.1026C115.762 34.1593 115.826 34.3151 115.769 34.4497L113.825 39.0615C113.783 39.1627 113.684 39.2237 113.581 39.2237Z" fill="#25292B"></path>
    <path d="M117.136 40.1426C117.101 40.1426 117.066 40.1357 117.033 40.1219C116.898 40.0652 116.835 39.9094 116.891 39.7747L118.883 35.0496C118.94 34.9144 119.096 34.8519 119.23 34.908C119.365 34.9648 119.429 35.1206 119.372 35.2552L117.38 39.9804C117.337 40.0816 117.239 40.1426 117.136 40.1426Z" fill="#25292B"></path>
    <path d="M291.915 120.972V173.86C291.915 176.348 289.896 178.373 287.413 178.373H160.523C158.036 178.373 156.01 176.348 156.01 173.86V120.972C156.01 118.485 158.036 116.46 160.523 116.46H287.413C289.896 116.46 291.915 118.485 291.915 120.972Z" fill="white"></path>
    <path d="M291.914 120.627V123.818L156.01 123.813V120.623C156.01 118.323 157.877 116.456 160.177 116.456L287.747 116.461C290.047 116.46 291.914 118.328 291.914 120.627Z" fill="#1E2F37"></path>
    <path d="M284.953 121.094H276.836C276.368 121.094 275.985 120.711 275.985 120.243V120.039C275.985 119.571 276.368 119.188 276.836 119.188H284.953C285.421 119.188 285.804 119.571 285.804 120.039V120.243C285.804 120.711 285.421 121.094 284.953 121.094Z" fill="white"></path>
    <path d="M271.933 121.233H263.816C263.348 121.233 262.965 120.85 262.965 120.382V120.178C262.965 119.71 263.348 119.327 263.816 119.327H271.933C272.401 119.327 272.784 119.71 272.784 120.178V120.382C272.785 120.85 272.402 121.233 271.933 121.233Z" fill="#FF6B26"></path>
    <path d="M258.89 121.233H250.773C250.305 121.233 249.922 120.85 249.922 120.382V120.178C249.922 119.71 250.305 119.327 250.773 119.327H258.89C259.358 119.327 259.741 119.71 259.741 120.178V120.382C259.741 120.85 259.358 121.233 258.89 121.233Z" fill="#25292B"></path>
    <path d="M185.171 146.465V161.207C185.171 161.786 184.702 162.259 184.123 162.259H167.716C167.137 162.259 166.668 161.786 166.668 161.207V146.465C166.668 145.886 167.137 145.414 167.716 145.414H184.123C184.702 145.414 185.171 145.886 185.171 146.465Z" fill="#1E2F37"></path>
    <path d="M182.893 145.406H180.685V143.556C180.685 140.792 178.436 138.542 175.671 138.542C172.906 138.542 170.656 140.791 170.656 143.556V145.406H168.448V143.556C168.448 139.574 171.688 136.334 175.671 136.334C179.653 136.334 182.893 139.574 182.893 143.556V145.406Z" fill="#25292B"></path>
    <path d="M179.21 156.806C179.047 157.017 178.804 157.136 178.543 157.136H174.529C174.268 157.136 174.026 157.017 173.863 156.806C173.7 156.597 173.642 156.328 173.705 156.067L174.448 152.91C173.906 152.307 173.651 151.524 173.724 150.702C173.841 149.369 174.873 148.281 176.176 148.114C176.987 148.014 177.8 148.269 178.407 148.816C179.011 149.363 179.359 150.149 179.359 150.974C179.359 151.69 179.101 152.376 178.625 152.909L179.367 156.067C179.43 156.328 179.37 156.597 179.21 156.806Z" fill="#25292B"></path>
    <path d="M168.619 146.244H168.282V161.6H168.619V146.244Z" fill="#25292B"></path>
    <path d="M178.268 170.652L175.955 169.391C164.34 163.062 161.74 151.376 160.63 138.265L161.489 138.131C169.331 137.587 173.169 136.28 178.268 130.574C184.355 136.062 190.167 138.066 195.866 138.066L195.923 138.077C194.87 151.292 192.223 163.086 180.507 169.438L178.268 170.652Z" fill="#1E2F37"></path>
    <path d="M173.412 164.527C173.381 164.527 173.348 164.517 173.322 164.496C170.029 161.948 167.667 158.554 166.101 154.121C164.525 149.661 163.943 144.605 163.612 140.699C163.605 140.622 163.66 140.553 163.737 140.541L164.444 140.431C164.448 140.43 164.453 140.43 164.456 140.43C170.618 140.002 173.885 139.049 178.168 134.257C178.194 134.228 178.231 134.21 178.271 134.208C178.311 134.206 178.348 134.22 178.377 134.246C182.951 138.37 187.657 140.375 192.764 140.375C192.774 140.375 192.784 140.376 192.794 140.378L192.84 140.387C192.92 140.404 192.971 140.482 192.955 140.562C192.938 140.641 192.859 140.692 192.78 140.675L192.749 140.669C187.612 140.665 182.881 138.667 178.29 134.563C173.988 139.335 170.679 140.292 164.483 140.723L163.918 140.81C164.803 151.126 166.784 159.064 173.503 164.264C173.567 164.314 173.579 164.406 173.529 164.47C173.5 164.507 173.457 164.527 173.412 164.527Z" fill="#FF6B26"></path>
    <path d="M178.278 167.439C178.226 167.439 178.175 167.412 178.148 167.363C178.109 167.292 178.135 167.202 178.207 167.163L180.05 166.164C186.775 162.518 190.457 156.452 191.987 146.497C191.999 146.416 192.076 146.361 192.156 146.373C192.236 146.386 192.292 146.461 192.279 146.541C190.733 156.596 187.005 162.728 180.191 166.422L178.349 167.421C178.326 167.433 178.301 167.439 178.278 167.439Z" fill="#FF6B26"></path>
    <path d="M183.915 148.978H172.641C172.217 148.978 171.874 149.319 171.874 149.74V153.099C171.874 155.968 174.216 158.293 177.106 158.293H179.45C182.34 158.293 184.682 155.968 184.682 153.099V149.74C184.682 149.319 184.339 148.978 183.915 148.978Z" fill="#FF6B26"></path>
    <path d="M182.846 148.041C182.586 148.041 182.375 147.832 182.375 147.574V145.996C182.375 144.148 180.861 142.645 178.999 142.645H177.551C175.69 142.645 174.175 144.148 174.175 145.996V147.574C174.175 147.832 173.965 148.041 173.704 148.041C173.445 148.041 173.234 147.832 173.234 147.574V145.996C173.234 143.633 175.171 141.71 177.551 141.71H178.999C181.38 141.71 183.317 143.633 183.317 145.996V147.574C183.317 147.832 183.106 148.041 182.846 148.041Z" fill="#FF6B26"></path>
    <path d="M179.431 152.098C179.431 151.465 178.914 150.951 178.276 150.951C177.637 150.951 177.12 151.465 177.12 152.098C177.12 152.532 177.363 152.91 177.721 153.105V155.316C177.721 155.62 177.969 155.867 178.276 155.867C178.582 155.867 178.83 155.62 178.83 155.316V153.105C179.188 152.91 179.431 152.532 179.431 152.098Z" fill="#1E2F37"></path>
    <path d="M278.358 157.694C278.358 158.047 278.19 158.367 277.914 158.602C277.641 158.833 277.264 158.978 276.848 158.978H205.24C204.409 158.978 203.727 158.4 203.727 157.694C203.727 157.342 203.898 157.021 204.171 156.79C204.447 156.559 204.825 156.414 205.24 156.414H276.848C277.679 156.413 278.358 156.989 278.358 157.694Z" fill="#1E2F37"></path>
    <path d="M203.717 150.371C203.717 150.018 203.889 149.697 204.161 149.463C204.434 149.232 204.811 149.087 205.227 149.087H276.825C277.657 149.087 278.336 149.665 278.336 150.371C278.336 150.723 278.164 151.044 277.892 151.275C277.619 151.509 277.242 151.651 276.825 151.651H205.227C204.396 151.652 203.717 151.075 203.717 150.371Z" fill="#1E2F37"></path>
    <path d="M254.472 164.865C254.472 165.217 254.397 165.538 254.277 165.772C254.156 166.004 253.99 166.149 253.807 166.149H204.389C204.023 166.149 203.723 165.57 203.723 164.865C203.723 164.513 203.799 164.192 203.918 163.961C204.039 163.727 204.205 163.585 204.388 163.585H253.807C254.172 163.584 254.472 164.16 254.472 164.865Z" fill="#1E2F37"></path>
    <path d="M278.366 143.717C278.366 144.069 278.197 144.39 277.922 144.624C277.649 144.855 277.271 145 276.855 145H205.248C204.416 145 203.735 144.422 203.735 143.717C203.735 143.364 203.906 143.044 204.179 142.813C204.455 142.581 204.833 142.436 205.248 142.436H276.856C277.687 142.436 278.366 143.012 278.366 143.717Z" fill="#1E2F37"></path>
    <path d="M203.725 136.393C203.725 136.041 203.896 135.72 204.169 135.486C204.442 135.254 204.819 135.109 205.235 135.109H276.833C277.665 135.109 278.343 135.688 278.343 136.393C278.343 136.745 278.172 137.066 277.899 137.297C277.626 137.531 277.249 137.673 276.833 137.673H205.235C204.404 137.674 203.725 137.098 203.725 136.393Z" fill="#1E2F37"></path>
    <path d="M291.915 74.1368V107.089C291.915 109.576 289.896 111.601 287.413 111.601H160.523C158.036 111.601 156.01 109.576 156.01 107.089V74.1368C156.01 71.6496 158.036 69.6244 160.523 69.6244H287.413C289.896 69.6244 291.915 71.6496 291.915 74.1368Z" fill="white"></path>
    <path d="M291.918 73.7958V76.9863L156.014 76.9814V73.7908C156.014 71.4906 157.881 69.6238 160.181 69.6238L287.751 69.6288C290.051 69.6288 291.918 71.4962 291.918 73.7958Z" fill="#1E2F37"></path>
    <path d="M284.953 74.268H276.836C276.368 74.268 275.985 73.8847 275.985 73.4166V73.2129C275.985 72.7448 276.368 72.3616 276.836 72.3616H284.953C285.421 72.3616 285.804 72.7448 285.804 73.2129V73.4166C285.804 73.8847 285.421 74.268 284.953 74.268Z" fill="white"></path>
    <path d="M271.933 74.399H263.816C263.348 74.399 262.965 74.0157 262.965 73.5476V73.3439C262.965 72.8758 263.348 72.4926 263.816 72.4926H271.933C272.401 72.4926 272.784 72.8758 272.784 73.3439V73.5476C272.785 74.0157 272.402 74.399 271.933 74.399Z" fill="#FF6B26"></path>
    <path d="M258.89 74.399H250.773C250.305 74.399 249.922 74.0157 249.922 73.5476V73.3439C249.922 72.8758 250.305 72.4926 250.773 72.4926H258.89C259.358 72.4926 259.741 72.8758 259.741 73.3439V73.5476C259.741 74.0157 259.358 74.399 258.89 74.399Z" fill="#25292B"></path>
    <path d="M172.007 105.994C179.15 105.994 184.94 100.204 184.94 93.0618C184.94 85.9194 179.15 80.1294 172.007 80.1294C164.865 80.1294 159.075 85.9194 159.075 93.0618C159.075 100.204 164.865 105.994 172.007 105.994Z" fill="#25292B"></path>
    <path d="M169.537 99.7628L162.959 93.1842L166.102 90.0413L169.537 93.4764L178.061 84.9524L181.204 88.0953L169.537 99.7628Z" fill="#FF6B26"></path>
    <path d="M285.74 93.61C285.74 93.9623 285.571 94.283 285.296 94.5171C285.023 94.7486 284.645 94.8941 284.23 94.8941H190.873C190.041 94.8941 189.36 94.3158 189.36 93.6106C189.36 93.2583 189.531 92.9376 189.804 92.7066C190.08 92.4751 190.458 92.3296 190.873 92.3296H284.23C285.061 92.3296 285.74 92.9054 285.74 93.61Z" fill="#1E2F37"></path>
    <path d="M189.35 86.2861C189.35 85.9338 189.521 85.613 189.794 85.379C190.067 85.1474 190.444 85.0025 190.86 85.0025H284.207C285.039 85.0025 285.717 85.5808 285.717 86.2861C285.717 86.6384 285.546 86.9591 285.273 87.19C285 87.4241 284.623 87.5665 284.207 87.5665H190.861C190.029 87.5671 189.35 86.9913 189.35 86.2861Z" fill="#1E2F37"></path>
    <path d="M261.848 100.783C261.848 101.135 261.773 101.456 261.653 101.69C261.532 101.921 261.366 102.066 261.183 102.066H190.016C189.65 102.066 189.35 101.488 189.35 100.783C189.35 100.43 189.426 100.11 189.545 99.8786C189.666 99.6446 189.832 99.5022 190.015 99.5022H261.182C261.548 99.5022 261.848 100.078 261.848 100.783Z" fill="#1E2F37"></path>
    <path d="M292.194 55.4398V58.3926C292.194 61.073 290.001 63.266 287.321 63.266H159.975C157.295 63.266 155.102 61.073 155.102 58.3926V55.4398C155.102 52.7595 157.295 50.5664 159.975 50.5664H287.321C290.001 50.5664 292.194 52.7595 292.194 55.4398Z" fill="white"></path>
    <path d="M186.546 60.247H185.39V56.9159C185.39 56.498 185.306 56.1859 185.138 55.9803C184.97 55.7748 184.703 55.672 184.338 55.672C183.854 55.672 183.499 55.8162 183.272 56.1054C183.045 56.3945 182.932 56.8787 182.932 57.558V60.2476H181.78V52.6251H182.932V54.56C182.932 54.8702 182.912 55.2014 182.873 55.5543H182.946C183.102 55.2931 183.32 55.0906 183.6 54.947C183.879 54.8033 184.205 54.7315 184.577 54.7315C185.889 54.7315 186.546 55.3927 186.546 56.7153L186.546 60.247Z" fill="#25292B"></path>
    <path d="M190.164 59.4125C190.445 59.4125 190.726 59.3686 191.007 59.28V60.1475C190.879 60.2032 190.715 60.2496 190.514 60.2868C190.314 60.3245 190.105 60.3431 189.889 60.3431C188.798 60.3431 188.254 59.7685 188.254 58.6188V55.6994H187.514V55.1898L188.307 54.7682L188.699 53.6221H189.41V54.827H190.953V55.6988H189.41V58.5989C189.41 58.8763 189.479 59.0813 189.618 59.2138C189.756 59.3463 189.939 59.4125 190.164 59.4125Z" fill="#25292B"></path>
    <path d="M194.109 59.4125C194.39 59.4125 194.671 59.3686 194.952 59.28V60.1475C194.824 60.2032 194.66 60.2496 194.459 60.2868C194.259 60.3245 194.051 60.3431 193.834 60.3431C192.743 60.3431 192.199 59.7685 192.199 58.6188V55.6994H191.459V55.1898L192.252 54.7682L192.644 53.6221H193.355V54.827H194.898V55.6988H193.355V58.5989C193.355 58.8763 193.424 59.0813 193.563 59.2138C193.702 59.3463 193.884 59.4125 194.109 59.4125Z" fill="#25292B"></path>
    <path d="M198.784 60.3484C198.098 60.3484 197.566 60.102 197.187 59.6085H197.118C197.164 60.066 197.187 60.3434 197.187 60.4413V62.6603H196.035V54.8323H196.966C196.992 54.9338 197.046 55.1753 197.127 55.5573H197.186C197.545 55.0087 198.084 54.7344 198.803 54.7344C199.479 54.7344 200.005 54.9796 200.382 55.4694C200.759 55.9591 200.948 56.647 200.948 57.5318C200.948 58.4166 200.756 59.1076 200.373 59.6041C199.99 60.1007 199.46 60.3484 198.784 60.3484ZM198.504 55.6749C198.047 55.6749 197.714 55.8087 197.503 56.0768C197.292 56.3443 197.187 56.7721 197.187 57.3603V57.5318C197.187 58.1912 197.291 58.6692 197.5 58.9645C197.709 59.2605 198.051 59.4079 198.524 59.4079C198.922 59.4079 199.229 59.2444 199.445 58.9181C199.66 58.5918 199.768 58.1262 199.768 57.5219C199.768 56.9145 199.661 56.4551 199.447 56.143C199.234 55.8316 198.919 55.6749 198.504 55.6749Z" fill="#25292B"></path>
    <path d="M205.921 58.7076C205.921 59.2364 205.729 59.6425 205.344 59.9249C204.958 60.2072 204.406 60.3484 203.688 60.3484C202.966 60.3484 202.387 60.2388 201.949 60.0202V59.0259C202.586 59.32 203.179 59.4667 203.727 59.4667C204.436 59.4667 204.79 59.2531 204.79 58.8252C204.79 58.6884 204.751 58.5739 204.673 58.4822C204.594 58.3906 204.465 58.2959 204.286 58.198C204.106 58.1002 203.856 57.9888 203.536 57.8649C202.912 57.6235 202.49 57.3814 202.27 57.1399C202.049 56.8984 201.939 56.5851 201.939 56.1994C201.939 55.7356 202.126 55.3759 202.5 55.1189C202.874 54.8626 203.382 54.7344 204.026 54.7344C204.663 54.7344 205.265 54.8632 205.834 55.1214L205.461 55.9889C204.876 55.7474 204.385 55.6266 203.987 55.6266C203.379 55.6266 203.075 55.8 203.075 56.1455C203.075 56.3152 203.154 56.4588 203.313 56.5764C203.471 56.6941 203.817 56.8557 204.349 57.0612C204.797 57.2346 205.122 57.3931 205.324 57.5361C205.526 57.6798 205.676 57.8457 205.775 58.0333C205.873 58.2216 205.921 58.4463 205.921 58.7076Z" fill="#25292B"></path>
    <path d="M207 55.4568C207 54.9639 207.242 54.7169 207.725 54.7169C207.97 54.7169 208.153 54.7825 208.274 54.9125C208.395 55.0432 208.455 55.2246 208.455 55.4561C208.455 55.6883 208.393 55.8716 208.267 56.0072C208.141 56.1428 207.961 56.2109 207.726 56.2109C207.491 56.2109 207.311 56.144 207.187 56.0103C207.062 55.8766 207 55.692 207 55.4568ZM207 59.6404C207 59.4021 207.062 59.2194 207.186 59.0919C207.31 58.9643 207.49 58.9012 207.725 58.9012C207.964 58.9012 208.145 58.9674 208.269 59.0993C208.393 59.2318 208.455 59.412 208.455 59.6404C208.455 59.8726 208.392 60.0559 208.266 60.1915C208.141 60.3271 207.96 60.3946 207.725 60.3946C207.491 60.3946 207.31 60.3277 207.186 60.194C207.062 60.0602 207 59.8757 207 59.6404Z" fill="#25292B"></path>
    <path d="M212.936 53.0865L210.271 60.2489H209.184L211.854 53.0865H212.936Z" fill="#25292B"></path>
    <path d="M216.848 53.0865L214.183 60.2489H213.096L215.766 53.0865H216.848Z" fill="#25292B"></path>
    <path d="M178.805 55.393V58.443C178.805 60.4614 177.156 62.1103 175.137 62.1103H160.151C158.133 62.1103 156.484 60.4614 156.484 58.443V55.393C156.484 53.3745 158.133 51.7257 160.151 51.7257H175.137C177.156 51.7257 178.805 53.3745 178.805 55.393Z" fill="#1E2F37"></path>
    <path d="M197.929 24.1246C197.829 24.1246 197.737 24.0707 197.687 23.9847L195.043 19.4078C194.993 19.3211 194.993 19.214 195.043 19.1273L197.687 14.5511C197.736 14.4644 197.829 14.4112 197.929 14.4112C198.03 14.4112 198.122 14.4644 198.172 14.5505L200.822 19.1267C200.872 19.214 200.872 19.3211 200.822 19.4078L198.172 23.9847C198.122 24.0714 198.03 24.1246 197.929 24.1246ZM195.609 19.2673L197.93 23.2844L200.255 19.2673L197.93 15.2508L195.609 19.2673Z" fill="#FF6B26"></path>
    <path d="M190.582 18.6361C189.702 18.6361 188.986 17.9199 188.986 17.0397C188.986 16.1595 189.702 15.444 190.582 15.444C191.463 15.444 192.178 16.1595 192.178 17.0397C192.178 17.9199 191.462 18.6361 190.582 18.6361ZM190.582 16.0042C190.011 16.0042 189.546 16.469 189.546 17.0397C189.546 17.611 190.011 18.0759 190.582 18.0759C191.153 18.0759 191.618 17.611 191.618 17.0397C191.617 16.469 191.153 16.0042 190.582 16.0042Z" fill="#FF6B26"></path>
    <path d="M195.298 12.7671C194.53 12.7671 193.904 12.1413 193.904 11.3726C193.904 10.6044 194.53 9.97864 195.298 9.97864C196.067 9.97864 196.693 10.6044 196.693 11.3726C196.693 12.142 196.067 12.7671 195.298 12.7671ZM195.298 10.5394C194.838 10.5394 194.465 10.9133 194.465 11.3732C194.465 11.8331 194.839 12.2069 195.298 12.2069C195.758 12.2069 196.132 11.8325 196.132 11.3732C196.132 10.9139 195.758 10.5394 195.298 10.5394Z" fill="#FF6B26"></path>
    <path d="M189.253 13.4063C188.684 13.4063 188.221 12.9433 188.221 12.3745C188.221 11.8057 188.684 11.342 189.253 11.342C189.822 11.342 190.285 11.8057 190.285 12.3745C190.286 12.9433 189.823 13.4063 189.253 13.4063ZM189.253 11.9022C188.993 11.9022 188.781 12.1139 188.781 12.3745C188.781 12.6345 188.993 12.8461 189.253 12.8461C189.513 12.8461 189.725 12.6345 189.725 12.3745C189.725 12.1139 189.513 11.9022 189.253 11.9022Z" fill="#FF6B26"></path>
    <path d="M152.136 150.228C152.035 150.228 151.943 150.175 151.893 150.088L149.87 146.586C149.82 146.499 149.82 146.392 149.87 146.306L151.893 142.804C151.943 142.717 152.035 142.664 152.136 142.664C152.236 142.664 152.328 142.717 152.378 142.804L154.406 146.306C154.456 146.392 154.456 146.5 154.406 146.587L152.378 150.089C152.328 150.175 152.236 150.228 152.136 150.228ZM150.437 146.446L152.136 149.389L153.839 146.446L152.136 143.504L150.437 146.446Z" fill="#FF6B26"></path>
    <path d="M147.348 144.961C146.468 144.961 145.752 144.244 145.752 143.364C145.752 142.484 146.468 141.768 147.348 141.768C148.229 141.768 148.944 142.484 148.944 143.364C148.945 144.244 148.229 144.961 147.348 144.961ZM147.348 142.329C146.777 142.329 146.312 142.794 146.312 143.365C146.312 143.936 146.777 144.4 147.348 144.4C147.919 144.4 148.384 143.936 148.384 143.365C148.384 142.793 147.92 142.329 147.348 142.329Z" fill="#FF6B26"></path>
    <path d="M152.06 141.016C151.292 141.016 150.666 140.39 150.666 139.621C150.666 138.852 151.292 138.227 152.06 138.227C152.829 138.227 153.455 138.853 153.455 139.621C153.454 140.39 152.829 141.016 152.06 141.016ZM152.06 138.787C151.601 138.787 151.227 139.161 151.227 139.621C151.227 140.081 151.601 140.455 152.06 140.455C152.52 140.455 152.894 140.081 152.894 139.621C152.894 139.161 152.52 138.787 152.06 138.787Z" fill="#FF6B26"></path>
    <path d="M147.351 139.527C146.782 139.527 146.319 139.064 146.319 138.495C146.319 137.926 146.782 137.462 147.351 137.462C147.92 137.462 148.383 137.925 148.383 138.495C148.383 139.064 147.921 139.527 147.351 139.527ZM147.351 138.023C147.091 138.023 146.88 138.234 146.88 138.495C146.88 138.756 147.091 138.967 147.351 138.967C147.611 138.967 147.823 138.755 147.823 138.495C147.823 138.235 147.611 138.023 147.351 138.023Z" fill="#FF6B26"></path>
    <path d="M34.887 115.934C34.7867 115.934 34.6945 115.88 34.6443 115.794L32.0005 111.217C31.9504 111.131 31.9504 111.024 32.0005 110.937L34.6443 106.361C34.6945 106.274 34.7867 106.221 34.887 106.221C34.9867 106.221 35.0796 106.274 35.1298 106.36L37.7798 110.936C37.8299 111.024 37.8299 111.131 37.7798 111.217L35.1298 115.794C35.0796 115.882 34.9873 115.934 34.887 115.934ZM32.567 111.078L34.8877 115.095L37.2132 111.078L34.8877 107.061L32.567 111.078Z" fill="#FF6B26"></path>
    <path d="M45.8854 113.007C45.0052 113.007 44.2891 112.291 44.2891 111.411C44.2891 110.531 45.0052 109.815 45.8854 109.815C46.7656 109.815 47.4817 110.531 47.4817 111.411C47.4817 112.291 46.7656 113.007 45.8854 113.007ZM45.8854 110.375C45.3141 110.375 44.8492 110.84 44.8492 111.412C44.8492 111.982 45.3141 112.447 45.8854 112.447C46.4567 112.447 46.9209 111.982 46.9209 111.412C46.9209 110.84 46.4567 110.375 45.8854 110.375Z" fill="#FF6B26"></path>
    <path d="M32.4037 104.584C31.6349 104.584 31.0098 103.958 31.0098 103.19C31.0098 102.421 31.6355 101.795 32.4037 101.795C33.1725 101.795 33.7982 102.421 33.7982 103.19C33.7982 103.958 33.1725 104.584 32.4037 104.584ZM32.4037 102.355C31.9438 102.355 31.5699 102.73 31.5699 103.189C31.5699 103.649 31.9438 104.022 32.4037 104.022C32.8636 104.022 33.2375 103.648 33.2375 103.189C33.2375 102.73 32.8636 102.355 32.4037 102.355Z" fill="#FF6B26"></path>
    <path d="M40.3404 109.839C39.7716 109.839 39.3086 109.376 39.3086 108.807C39.3086 108.239 39.7716 107.776 40.3404 107.776C40.9093 107.776 41.3729 108.239 41.3729 108.807C41.3729 109.376 40.9093 109.839 40.3404 109.839ZM40.3404 108.336C40.0805 108.336 39.8688 108.547 39.8688 108.807C39.8688 109.067 40.0805 109.279 40.3404 109.279C40.6004 109.279 40.8127 109.067 40.8127 108.807C40.8127 108.547 40.6004 108.336 40.3404 108.336Z" fill="#FF6B26"></path>
    <path d="M40.6577 104.584C40.5574 104.584 40.4652 104.53 40.415 104.444L38.7544 101.57C38.7043 101.483 38.7043 101.376 38.7544 101.29L40.415 98.4154C40.4652 98.3288 40.5574 98.2755 40.6577 98.2755C40.7574 98.2755 40.8503 98.3288 40.9004 98.4148L42.5647 101.289C42.6149 101.376 42.6149 101.483 42.5647 101.57L40.9004 104.444C40.8503 104.531 40.7574 104.584 40.6577 104.584ZM39.3209 101.43L40.6577 103.743L41.9976 101.43L40.6577 99.1151L39.3209 101.43Z" fill="#FF6B26"></path>
    <path d="M26.2877 115.341C25.7189 115.341 25.2559 114.878 25.2559 114.309C25.2559 113.74 25.7189 113.277 26.2877 113.277C26.8565 113.277 27.3201 113.74 27.3201 114.309C27.3201 114.878 26.8565 115.341 26.2877 115.341ZM26.2877 113.838C26.0277 113.838 25.816 114.049 25.816 114.309C25.816 114.569 26.0277 114.781 26.2877 114.781C26.5477 114.781 26.76 114.569 26.76 114.309C26.7593 114.049 26.5477 113.838 26.2877 113.838Z" fill="#FF6B26"></path>
    <path d="M234.167 31.4061C233.996 31.4061 233.857 31.2674 233.857 31.0965V30.0068C233.857 29.8359 233.996 29.6972 234.167 29.6972C234.338 29.6972 234.476 29.8359 234.476 30.0068V31.0965C234.476 31.2674 234.338 31.4061 234.167 31.4061ZM234.167 26.1735C233.996 26.1735 233.857 26.0348 233.857 25.864V21.7205C233.857 21.5496 233.996 21.4109 234.167 21.4109C234.338 21.4109 234.476 21.5496 234.476 21.7205V25.864C234.476 26.0348 234.338 26.1735 234.167 26.1735ZM133.752 17.9083C133.581 17.9083 133.443 17.7696 133.443 17.5988C133.443 16.1555 133.734 14.7593 134.308 13.4485C134.377 13.2919 134.558 13.2213 134.716 13.2894C134.873 13.3581 134.944 13.5408 134.875 13.6974C134.335 14.9295 134.062 16.2422 134.062 17.5994C134.062 17.7696 133.923 17.9083 133.752 17.9083ZM234.167 17.8873C233.997 17.8873 233.858 17.7492 233.858 17.5783C233.855 16.2211 233.578 14.9091 233.036 13.6788C232.967 13.5228 233.038 13.3395 233.194 13.2708C233.352 13.2015 233.533 13.272 233.602 13.4293C234.18 14.7382 234.474 16.1344 234.477 17.5777C234.478 17.7474 234.339 17.8867 234.167 17.8873ZM136.979 10.5329C136.896 10.5329 136.813 10.4994 136.752 10.4332C136.636 10.3075 136.644 10.1118 136.769 9.99543C137.827 9.01777 139.051 8.28407 140.406 7.81536C140.567 7.75902 140.744 7.84508 140.799 8.00668C140.855 8.16828 140.77 8.34474 140.608 8.40047C139.334 8.84131 138.184 9.53106 137.19 10.4505C137.13 10.5056 137.055 10.5329 136.979 10.5329ZM230.924 10.5192C230.849 10.5192 230.774 10.4926 230.714 10.4375C229.718 9.52053 228.566 8.83264 227.292 8.39428C227.13 8.33855 227.044 8.16271 227.1 8.00111C227.155 7.8395 227.331 7.75282 227.493 7.80917C228.849 8.2754 230.074 9.00663 231.134 9.98243C231.26 10.0982 231.268 10.2939 231.152 10.4202C231.091 10.4858 231.008 10.5192 230.924 10.5192ZM223.31 7.86799H219.166C218.995 7.86799 218.857 7.7293 218.857 7.55841C218.857 7.38752 218.995 7.24883 219.166 7.24883H223.31C223.481 7.24883 223.619 7.38752 223.619 7.55841C223.619 7.7293 223.481 7.86799 223.31 7.86799ZM215.023 7.86799H210.88C210.709 7.86799 210.57 7.7293 210.57 7.55841C210.57 7.38752 210.709 7.24883 210.88 7.24883H215.023C215.194 7.24883 215.332 7.38752 215.332 7.55841C215.332 7.7293 215.194 7.86799 215.023 7.86799ZM206.737 7.86799H202.593C202.422 7.86799 202.284 7.7293 202.284 7.55841C202.284 7.38752 202.422 7.24883 202.593 7.24883H206.737C206.907 7.24883 207.046 7.38752 207.046 7.55841C207.046 7.7293 206.907 7.86799 206.737 7.86799ZM198.45 7.86799H194.307C194.136 7.86799 193.997 7.7293 193.997 7.55841C193.997 7.38752 194.136 7.24883 194.307 7.24883H198.45C198.621 7.24883 198.759 7.38752 198.759 7.55841C198.759 7.7293 198.621 7.86799 198.45 7.86799ZM190.163 7.86799H186.02C185.849 7.86799 185.71 7.7293 185.71 7.55841C185.71 7.38752 185.849 7.24883 186.02 7.24883H190.163C190.334 7.24883 190.473 7.38752 190.473 7.55841C190.473 7.7293 190.335 7.86799 190.163 7.86799ZM181.877 7.86799H177.734C177.563 7.86799 177.424 7.7293 177.424 7.55841C177.424 7.38752 177.563 7.24883 177.734 7.24883H181.877C182.047 7.24883 182.186 7.38752 182.186 7.55841C182.186 7.7293 182.048 7.86799 181.877 7.86799ZM173.591 7.86799H169.447C169.277 7.86799 169.138 7.7293 169.138 7.55841C169.138 7.38752 169.277 7.24883 169.447 7.24883H173.591C173.762 7.24883 173.9 7.38752 173.9 7.55841C173.9 7.7293 173.762 7.86799 173.591 7.86799ZM165.304 7.86799H161.161C160.99 7.86799 160.852 7.7293 160.852 7.55841C160.852 7.38752 160.99 7.24883 161.161 7.24883H165.304C165.475 7.24883 165.614 7.38752 165.614 7.55841C165.614 7.7293 165.475 7.86799 165.304 7.86799ZM157.018 7.86799H152.875C152.704 7.86799 152.565 7.7293 152.565 7.55841C152.565 7.38752 152.704 7.24883 152.875 7.24883H157.018C157.189 7.24883 157.327 7.38752 157.327 7.55841C157.327 7.7293 157.189 7.86799 157.018 7.86799ZM148.731 7.86799H144.588C144.417 7.86799 144.278 7.7293 144.278 7.55841C144.278 7.38752 144.417 7.24883 144.588 7.24883H148.731C148.902 7.24883 149.04 7.38752 149.04 7.55841C149.04 7.7293 148.902 7.86799 148.731 7.86799Z" fill="#25292B"></path>
    <path d="M296.19 183.905H294.081C293.911 183.905 293.772 183.767 293.772 183.596C293.772 183.425 293.911 183.286 294.081 183.286H296.19C296.839 183.286 297.476 183.179 298.084 182.966C298.247 182.908 298.423 182.995 298.479 183.156C298.536 183.318 298.45 183.494 298.289 183.551C297.614 183.787 296.908 183.905 296.19 183.905ZM289.938 183.905H285.795C285.624 183.905 285.486 183.767 285.486 183.596C285.486 183.425 285.624 183.286 285.795 183.286H289.938C290.109 183.286 290.248 183.425 290.248 183.596C290.248 183.767 290.109 183.905 289.938 183.905ZM281.651 183.905H277.508C277.337 183.905 277.199 183.767 277.199 183.596C277.199 183.425 277.337 183.286 277.508 183.286H281.651C281.822 183.286 281.961 183.425 281.961 183.596C281.961 183.767 281.823 183.905 281.651 183.905ZM273.365 183.905H269.222C269.051 183.905 268.913 183.767 268.913 183.596C268.913 183.425 269.051 183.286 269.222 183.286H273.365C273.536 183.286 273.674 183.425 273.674 183.596C273.674 183.767 273.536 183.905 273.365 183.905ZM265.079 183.905H260.936C260.765 183.905 260.626 183.767 260.626 183.596C260.626 183.425 260.765 183.286 260.936 183.286H265.079C265.25 183.286 265.388 183.425 265.388 183.596C265.388 183.767 265.25 183.905 265.079 183.905ZM256.792 183.905H252.65C252.479 183.905 252.34 183.767 252.34 183.596C252.34 183.425 252.479 183.286 252.65 183.286H256.792C256.963 183.286 257.102 183.425 257.102 183.596C257.102 183.767 256.963 183.905 256.792 183.905ZM248.506 183.905H244.363C244.192 183.905 244.053 183.767 244.053 183.596C244.053 183.425 244.192 183.286 244.363 183.286H248.506C248.676 183.286 248.815 183.425 248.815 183.596C248.815 183.767 248.676 183.905 248.506 183.905ZM240.219 183.905H236.076C235.906 183.905 235.767 183.767 235.767 183.596C235.767 183.425 235.906 183.286 236.076 183.286H240.219C240.39 183.286 240.529 183.425 240.529 183.596C240.529 183.767 240.391 183.905 240.219 183.905ZM231.932 183.905H227.79C227.619 183.905 227.48 183.767 227.48 183.596C227.48 183.425 227.619 183.286 227.79 183.286H231.932C232.103 183.286 232.242 183.425 232.242 183.596C232.242 183.767 232.104 183.905 231.932 183.905ZM223.647 183.905H219.504C219.333 183.905 219.194 183.767 219.194 183.596C219.194 183.425 219.333 183.286 219.504 183.286H223.647C223.818 183.286 223.956 183.425 223.956 183.596C223.956 183.767 223.818 183.905 223.647 183.905ZM215.36 183.905H211.217C211.046 183.905 210.907 183.767 210.907 183.596C210.907 183.425 211.046 183.286 211.217 183.286H215.36C215.531 183.286 215.669 183.425 215.669 183.596C215.669 183.767 215.531 183.905 215.36 183.905ZM207.074 183.905H202.931C202.76 183.905 202.621 183.767 202.621 183.596C202.621 183.425 202.76 183.286 202.931 183.286H207.074C207.244 183.286 207.383 183.425 207.383 183.596C207.383 183.767 207.244 183.905 207.074 183.905ZM198.787 183.905H194.644C194.473 183.905 194.334 183.767 194.334 183.596C194.334 183.425 194.473 183.286 194.644 183.286H198.787C198.958 183.286 199.096 183.425 199.096 183.596C199.096 183.767 198.958 183.905 198.787 183.905ZM190.5 183.905H186.358C186.187 183.905 186.048 183.767 186.048 183.596C186.048 183.425 186.187 183.286 186.358 183.286H190.5C190.671 183.286 190.81 183.425 190.81 183.596C190.81 183.767 190.672 183.905 190.5 183.905ZM182.214 183.905H178.071C177.901 183.905 177.762 183.767 177.762 183.596C177.762 183.425 177.901 183.286 178.071 183.286H182.214C182.385 183.286 182.524 183.425 182.524 183.596C182.524 183.767 182.385 183.905 182.214 183.905ZM173.928 183.905H169.785C169.614 183.905 169.475 183.767 169.475 183.596C169.475 183.425 169.614 183.286 169.785 183.286H173.928C174.099 183.286 174.238 183.425 174.238 183.596C174.238 183.767 174.099 183.905 173.928 183.905ZM165.642 183.905H163.159C162.574 183.905 161.995 183.826 161.435 183.669C161.27 183.623 161.174 183.452 161.221 183.288C161.267 183.123 161.439 183.028 161.603 183.073C162.108 183.215 162.631 183.286 163.159 183.286H165.642C165.813 183.286 165.951 183.425 165.951 183.596C165.951 183.767 165.813 183.905 165.642 183.905ZM158.207 181.329C158.11 181.329 158.013 181.283 157.953 181.197C157.259 180.21 156.867 179.062 156.809 177.858H156.667C156.496 177.858 156.357 177.719 156.357 177.549C156.357 177.378 156.496 177.239 156.667 177.239H157.112C157.283 177.239 157.422 177.378 157.422 177.549C157.422 178.735 157.781 179.875 158.46 180.841C158.558 180.981 158.524 181.174 158.384 181.272C158.331 181.311 158.268 181.329 158.207 181.329ZM301.347 181.016C301.292 181.016 301.236 181.002 301.185 180.971C301.04 180.881 300.994 180.691 301.084 180.545C301.635 179.646 301.927 178.61 301.927 177.549V176.729C301.927 176.559 302.066 176.42 302.236 176.42C302.407 176.42 302.546 176.559 302.546 176.729V177.549C302.546 178.724 302.223 179.872 301.611 180.869C301.553 180.964 301.451 181.016 301.347 181.016ZM152.523 177.858H148.381C148.21 177.858 148.071 177.719 148.071 177.549C148.071 177.378 148.21 177.239 148.381 177.239H152.523C152.694 177.239 152.833 177.378 152.833 177.549C152.833 177.719 152.694 177.858 152.523 177.858ZM144.237 177.858H140.094C139.924 177.858 139.785 177.719 139.785 177.549C139.785 177.378 139.924 177.239 140.094 177.239H144.237C144.408 177.239 144.547 177.378 144.547 177.549C144.547 177.719 144.408 177.858 144.237 177.858ZM135.95 177.858H131.808C131.637 177.858 131.498 177.719 131.498 177.549C131.498 177.378 131.637 177.239 131.808 177.239H135.95C136.121 177.239 136.26 177.378 136.26 177.549C136.26 177.719 136.122 177.858 135.95 177.858ZM302.236 172.896C302.066 172.896 301.927 172.757 301.927 172.587V172.366C301.927 172.195 302.066 172.057 302.236 172.057C302.407 172.057 302.546 172.195 302.546 172.366V172.587C302.546 172.757 302.408 172.896 302.236 172.896Z" fill="#25292B"></path>
    <path d="M302.234 220.002H42.0769C41.906 220.002 41.7673 219.863 41.7673 219.692C41.7673 219.521 41.906 219.382 42.0769 219.382H302.235C302.406 219.382 302.545 219.521 302.545 219.692C302.545 219.863 302.406 220.002 302.234 220.002Z" fill="#25292B"></path>
  </g>
  <defs>
    <clipPath id="clip0_1_7209">
      <rect width="330" height="220" fill="white"></rect>
    </clipPath>
  </defs>
</svg>
