<svg xmlns="http://www.w3.org/2000/svg" xmlns:xlink="http://www.w3.org/1999/xlink" width="260" zoomAndPan="magnify" viewBox="0 0 194.87999 49.499998" height="66" preserveAspectRatio="xMidYMid meet" version="1.0"><defs><g/><clipPath id="482e6ecb70"><path d="M 0.914062 10.230469 L 23.191406 10.230469 L 23.191406 38.445312 L 0.914062 38.445312 Z M 0.914062 10.230469 " clip-rule="nonzero"/></clipPath></defs><g fill="#000000" fill-opacity="1"><g transform="translate(32.038301, 32.853287)"><g><path d="M 2.421875 0 L 0.1875 0 L 0.1875 -3.65625 L 2.421875 -3.65625 C 2.847656 -3.65625 3.179688 -3.753906 3.421875 -3.953125 C 3.660156 -4.160156 3.78125 -4.515625 3.78125 -5.015625 L 3.78125 -17.40625 L 7.890625 -17.40625 L 7.890625 -4.96875 C 7.890625 -3.664062 7.703125 -2.648438 7.328125 -1.921875 C 6.960938 -1.203125 6.375 -0.703125 5.5625 -0.421875 C 4.757812 -0.140625 3.710938 0 2.421875 0 Z M 2.421875 0 "/></g></g></g><g fill="#000000" fill-opacity="1"><g transform="translate(41.207398, 32.853287)"><g><path d="M 13.25 0 L 1.375 0 L 1.375 -17.40625 L 13.25 -17.40625 L 13.25 -13.75 L 5.453125 -13.75 L 5.453125 -10.515625 L 12.5 -10.515625 L 12.5 -6.890625 L 5.453125 -6.890625 L 5.453125 -3.65625 L 13.25 -3.65625 Z M 13.25 0 "/></g></g></g><g fill="#000000" fill-opacity="1"><g transform="translate(55.440033, 32.853287)"><g><path d="M 9.171875 0 L 5.09375 0 L 5.09375 -13.75 L 0.1875 -13.75 L 0.1875 -17.40625 L 14.078125 -17.40625 L 14.078125 -13.75 L 9.171875 -13.75 Z M 9.171875 0 "/></g></g></g><g fill="#000000" fill-opacity="1"><g transform="translate(69.695474, 32.853287)"><g><path d="M 11.015625 0 L 4.40625 0 L 0.25 -17.40625 L 4.546875 -17.40625 L 7.640625 -2.921875 L 10.171875 -17.40625 L 15.78125 -17.40625 L 18.3125 -2.890625 L 21.421875 -17.40625 L 25.703125 -17.40625 L 21.5625 0 L 14.9375 0 L 12.984375 -13.140625 Z M 11.015625 0 "/></g></g></g><g fill="#000000" fill-opacity="1"><g transform="translate(95.651782, 32.853287)"><g><path d="M 13.25 0 L 1.375 0 L 1.375 -17.40625 L 13.25 -17.40625 L 13.25 -13.75 L 5.453125 -13.75 L 5.453125 -10.515625 L 12.5 -10.515625 L 12.5 -6.890625 L 5.453125 -6.890625 L 5.453125 -3.65625 L 13.25 -3.65625 Z M 13.25 0 "/></g></g></g><g fill="#000000" fill-opacity="1"><g transform="translate(109.884416, 32.853287)"><g><path d="M 8.8125 0 L 1.375 0 L 1.375 -17.40625 L 8.484375 -17.40625 C 10.785156 -17.40625 12.414062 -16.90625 13.375 -15.90625 C 14.050781 -15.195312 14.390625 -14.242188 14.390625 -13.046875 C 14.390625 -11.085938 13.613281 -9.785156 12.0625 -9.140625 C 13.101562 -8.921875 13.898438 -8.46875 14.453125 -7.78125 C 15.003906 -7.09375 15.28125 -6.21875 15.28125 -5.15625 C 15.28125 -4.300781 15.113281 -3.535156 14.78125 -2.859375 C 14.445312 -2.179688 14.035156 -1.65625 13.546875 -1.28125 C 12.984375 -0.851562 12.378906 -0.550781 11.734375 -0.375 C 11.085938 -0.195312 10.492188 -0.0859375 9.953125 -0.046875 C 9.410156 -0.015625 9.03125 0 8.8125 0 Z M 5.453125 -13.75 L 5.453125 -10.375 L 8.140625 -10.375 C 9.585938 -10.375 10.3125 -10.945312 10.3125 -12.09375 C 10.3125 -12.65625 10.128906 -13.070312 9.765625 -13.34375 C 9.566406 -13.5 9.300781 -13.601562 8.96875 -13.65625 C 8.644531 -13.71875 8.1875 -13.75 7.59375 -13.75 Z M 5.453125 -7.1875 L 5.453125 -3.65625 L 8.28125 -3.65625 C 8.800781 -3.65625 9.265625 -3.6875 9.671875 -3.75 C 10.078125 -3.820312 10.410156 -3.960938 10.671875 -4.171875 C 11.023438 -4.441406 11.203125 -4.882812 11.203125 -5.5 C 11.203125 -6.207031 10.972656 -6.664062 10.515625 -6.875 C 10.054688 -7.082031 9.410156 -7.1875 8.578125 -7.1875 Z M 5.453125 -7.1875 "/></g></g></g><g fill="#000000" fill-opacity="1"><g transform="translate(125.918942, 32.853287)"><g><path d="M 5.453125 0 L 1.375 0 L 1.375 -17.40625 L 5.453125 -17.40625 L 5.453125 -10.515625 L 12.0625 -10.515625 L 12.0625 -17.40625 L 16.15625 -17.40625 L 16.15625 0 L 12.0625 0 L 12.0625 -6.859375 L 5.453125 -6.859375 Z M 5.453125 0 "/></g></g></g><g fill="#000000" fill-opacity="1"><g transform="translate(143.481644, 32.853287)"><g><path d="M 9.421875 0.390625 C 7.929688 0.390625 6.640625 0.144531 5.546875 -0.34375 C 4.453125 -0.832031 3.550781 -1.5 2.84375 -2.34375 C 2.132812 -3.1875 1.601562 -4.15625 1.25 -5.25 C 0.90625 -6.34375 0.734375 -7.5 0.734375 -8.71875 C 0.734375 -9.9375 0.90625 -11.085938 1.25 -12.171875 C 1.601562 -13.253906 2.132812 -14.21875 2.84375 -15.0625 C 3.550781 -15.90625 4.453125 -16.566406 5.546875 -17.046875 C 6.640625 -17.523438 7.929688 -17.765625 9.421875 -17.765625 C 10.898438 -17.765625 12.179688 -17.523438 13.265625 -17.046875 C 14.347656 -16.566406 15.25 -15.90625 15.96875 -15.0625 C 16.6875 -14.21875 17.21875 -13.253906 17.5625 -12.171875 C 17.914062 -11.085938 18.09375 -9.9375 18.09375 -8.71875 C 18.09375 -7.5 17.914062 -6.34375 17.5625 -5.25 C 17.21875 -4.15625 16.6875 -3.1875 15.96875 -2.34375 C 15.25 -1.5 14.347656 -0.832031 13.265625 -0.34375 C 12.179688 0.144531 10.898438 0.390625 9.421875 0.390625 Z M 9.421875 -3.265625 C 10.785156 -3.265625 11.851562 -3.757812 12.625 -4.75 C 13.394531 -5.738281 13.78125 -7.0625 13.78125 -8.71875 C 13.78125 -10.351562 13.394531 -11.660156 12.625 -12.640625 C 11.851562 -13.628906 10.785156 -14.125 9.421875 -14.125 C 8.054688 -14.125 6.984375 -13.628906 6.203125 -12.640625 C 5.429688 -11.660156 5.046875 -10.351562 5.046875 -8.71875 C 5.046875 -7.0625 5.429688 -5.738281 6.203125 -4.75 C 6.984375 -3.757812 8.054688 -3.265625 9.421875 -3.265625 Z M 9.421875 -3.265625 "/></g></g></g><g fill="#000000" fill-opacity="1"><g transform="translate(162.32164, 32.853287)"><g><path d="M 8.6875 0.390625 C 7.863281 0.390625 7.003906 0.285156 6.109375 0.078125 C 5.210938 -0.128906 4.367188 -0.46875 3.578125 -0.9375 C 2.785156 -1.40625 2.128906 -2.046875 1.609375 -2.859375 C 1.085938 -3.671875 0.785156 -4.6875 0.703125 -5.90625 L 4.921875 -5.90625 C 5.117188 -5.144531 5.410156 -4.554688 5.796875 -4.140625 C 6.191406 -3.722656 6.640625 -3.429688 7.140625 -3.265625 C 7.640625 -3.109375 8.148438 -3.03125 8.671875 -3.03125 C 9.140625 -3.03125 9.578125 -3.097656 9.984375 -3.234375 C 10.398438 -3.367188 10.738281 -3.578125 11 -3.859375 C 11.257812 -4.140625 11.390625 -4.507812 11.390625 -4.96875 C 11.390625 -5.425781 11.210938 -5.785156 10.859375 -6.046875 C 10.503906 -6.316406 10.035156 -6.535156 9.453125 -6.703125 C 8.878906 -6.867188 8.253906 -7.03125 7.578125 -7.1875 C 6.847656 -7.351562 6.101562 -7.539062 5.34375 -7.75 C 4.59375 -7.96875 3.898438 -8.257812 3.265625 -8.625 C 2.640625 -9 2.128906 -9.488281 1.734375 -10.09375 C 1.347656 -10.707031 1.15625 -11.492188 1.15625 -12.453125 C 1.15625 -13.660156 1.441406 -14.65625 2.015625 -15.4375 C 2.597656 -16.21875 3.378906 -16.800781 4.359375 -17.1875 C 5.347656 -17.570312 6.4375 -17.765625 7.625 -17.765625 C 8.832031 -17.765625 9.96875 -17.550781 11.03125 -17.125 C 12.101562 -16.707031 12.992188 -16.066406 13.703125 -15.203125 C 14.421875 -14.347656 14.875 -13.273438 15.0625 -11.984375 L 10.84375 -11.984375 C 10.644531 -12.722656 10.253906 -13.300781 9.671875 -13.71875 C 9.097656 -14.132812 8.382812 -14.34375 7.53125 -14.34375 C 6.945312 -14.34375 6.414062 -14.222656 5.9375 -13.984375 C 5.457031 -13.742188 5.21875 -13.347656 5.21875 -12.796875 C 5.21875 -12.390625 5.382812 -12.054688 5.71875 -11.796875 C 6.0625 -11.535156 6.515625 -11.320312 7.078125 -11.15625 C 7.640625 -11 8.242188 -10.847656 8.890625 -10.703125 C 9.617188 -10.535156 10.367188 -10.335938 11.140625 -10.109375 C 11.921875 -9.890625 12.640625 -9.585938 13.296875 -9.203125 C 13.953125 -8.816406 14.476562 -8.300781 14.875 -7.65625 C 15.28125 -7.007812 15.484375 -6.179688 15.484375 -5.171875 C 15.484375 -4.035156 15.207031 -3.050781 14.65625 -2.21875 C 14.113281 -1.394531 13.335938 -0.753906 12.328125 -0.296875 C 11.316406 0.160156 10.101562 0.390625 8.6875 0.390625 Z M 8.6875 0.390625 "/></g></g></g><g fill="#000000" fill-opacity="1"><g transform="translate(178.561448, 32.853287)"><g><path d="M 9.171875 0 L 5.09375 0 L 5.09375 -13.75 L 0.1875 -13.75 L 0.1875 -17.40625 L 14.078125 -17.40625 L 14.078125 -13.75 L 9.171875 -13.75 Z M 9.171875 0 "/></g></g></g><g clip-path="url(#482e6ecb70)"><path fill="#000000" d="M 23.328125 27.207031 L 23.328125 10.238281 L 4.019531 10.238281 L 4.019531 18.546875 L 12.953125 18.546875 L 12.953125 27.722656 C 12.953125 29.921875 11.789062 30.179688 10.902344 30.179688 C 9.738281 30.179688 8.625 29.453125 7.363281 27.886719 L 6.75 27.125 L 0.914062 34.042969 L 1.367188 34.558594 C 3.679688 37.257812 7.332031 38.746094 11.675781 38.746094 C 19.304688 38.761719 23.328125 34.769531 23.328125 27.207031 Z M 23.328125 27.207031 " fill-opacity="1" fill-rule="nonzero"/></g></svg>